<?xml version="1.0" encoding="UTF-8"?>
<svg version="1.1" xmlns="http://www.w3.org/2000/svg" width="1024" height="1536">
<path d="M0 0 C337.92 0 675.84 0 1024 0 C1024 506.88 1024 1013.76 1024 1536 C686.08 1536 348.16 1536 0 1536 C0 1029.12 0 522.24 0 0 Z " fill="#040403" transform="translate(0,0)"/>
<path d="M0 0 C6.64970799 4.63238085 11.82610203 10.05691127 14 18 C15.19301205 28.48146298 14.4918009 37.74632892 8.1875 46.5234375 C5.87320889 49.42480981 3.45497965 52.21849172 1 55 C-0.05458979 56.2137984 -1.10791338 57.42869774 -2.16015625 58.64453125 C-3.83796671 60.5824827 -5.51687905 62.5193696 -7.20092773 64.4519043 C-10.36435229 68.08589806 -13.46806952 71.75467411 -16.5 75.5 C-20.07541526 79.91668944 -23.76599348 84.21780385 -27.5 88.5 C-31.99747977 93.65851311 -36.38995452 98.88157094 -40.69921875 104.19921875 C-44.37772387 108.67712736 -48.17039656 113.05599295 -51.94921875 117.44921875 C-58.19427321 124.71031003 -64.3963115 132.00553429 -70.4375 139.4375 C-74.8514623 144.85856956 -79.39782805 150.15841974 -83.95703125 155.45703125 C-86.84230575 158.81142628 -89.70679062 162.18291989 -92.5625 165.5625 C-93.23708252 166.36083252 -93.23708252 166.36083252 -93.92529297 167.17529297 C-94.83068442 168.2471334 -95.73595817 169.31907326 -96.64111328 170.39111328 C-98.92546186 173.09572289 -101.21289508 175.79772127 -103.5 178.5 C-104.41668126 179.58332099 -105.33334793 180.66665432 -106.25 181.75 C-111.75 188.25 -111.75 188.25 -113.12548828 189.87548828 C-114.04064413 190.95709521 -114.9556835 192.03880069 -115.87060547 193.12060547 C-118.18443478 195.85617939 -120.50036471 198.58992474 -122.8203125 201.3203125 C-127.06965921 206.3252298 -131.29680691 211.34183625 -135.4375 216.4375 C-139.8514623 221.85856956 -144.39782805 227.15841974 -148.95703125 232.45703125 C-153.21351925 237.40558716 -157.42167006 242.3947854 -161.63232422 247.38232422 C-163.02459417 249.02908979 -164.42005473 250.67310067 -165.81640625 252.31640625 C-170.06740059 257.32234652 -174.29564292 262.3404038 -178.4375 267.4375 C-182.39508188 272.30129025 -186.46542446 277.05881231 -190.55834961 281.80834961 C-193.58945289 285.33298919 -196.56985316 288.89039882 -199.5 292.5 C-203.38952929 297.2881931 -207.37090989 301.989058 -211.41357422 306.64819336 C-213.9596546 309.58793508 -216.45492266 312.54835559 -218.859375 315.60546875 C-224.97760887 323.3076871 -230.98667683 329.09873611 -241 331 C-243.37118509 331.1701674 -245.74816893 331.26613471 -248.125 331.3125 C-249.36507812 331.34988281 -250.60515625 331.38726563 -251.8828125 331.42578125 C-261.43754088 330.89620522 -267.88039443 326.00268218 -274.1875 319.25 C-275.1765332 318.23292969 -275.1765332 318.23292969 -276.18554688 317.1953125 C-280.06067164 313.17892703 -283.74870546 309.01994223 -287.40356445 304.80371094 C-289.50386235 302.43071799 -291.73003405 300.21023001 -294 298 C-297.62881522 294.41510388 -301.0406286 290.737064 -304.35546875 286.86328125 C-306.5439537 284.38369142 -308.89544013 282.0937882 -311.25390625 279.77734375 C-313.06477643 277.93406426 -314.75321354 276.02177201 -316.4375 274.0625 C-318.85617779 271.25423653 -321.35899683 268.60029407 -324 266 C-326.53814799 263.50060236 -328.94128303 260.96218208 -331.25 258.25 C-334.3356159 254.65483285 -337.63197291 251.32661904 -341 248 C-344.89896918 244.14879036 -348.60824312 240.23578255 -352.16015625 236.05859375 C-355.3279628 232.51414778 -358.75645234 229.22605242 -362.15625 225.90625 C-364.97689576 223.08960586 -367.56546948 220.09143516 -370.17431641 217.07958984 C-373.17647099 213.65991176 -376.30779741 210.36511433 -379.4375 207.0625 C-380.1190918 206.34030273 -380.80068359 205.61810547 -381.50292969 204.87402344 C-384.4100251 201.79396583 -387.32070813 198.71731914 -390.23291016 195.64208984 C-391.70166624 194.09078677 -393.16969837 192.53879789 -394.63696289 190.98608398 C-396.01334578 189.52955124 -397.39135809 188.07455597 -398.77124023 186.62133789 C-407.53705924 177.34206822 -410.54180549 171.44029858 -410.30859375 158.50390625 C-409.52119536 149.56344604 -405.46118887 143.06789911 -399 137 C-390.58244202 130.60265594 -382.22654341 129.86313529 -372 131 C-360.300364 133.76241406 -351.31995072 146.12384865 -343.87109375 154.91015625 C-340.8591824 158.27419085 -337.61576911 161.40400774 -334.40429688 164.57617188 C-331.0492277 167.90598332 -327.90266971 171.3394031 -324.83984375 174.94140625 C-322.04233133 178.07153162 -319.03375494 180.98685658 -316.04663086 183.93383789 C-312.82001347 187.13385771 -309.82069539 190.45072272 -306.875 193.90625 C-303.69237717 197.46017883 -300.25568284 200.76209793 -296.84375 204.09375 C-294.67280511 206.2585449 -292.65692064 208.52097592 -290.65625 210.84375 C-286.96711197 215.10416131 -283.02160197 219.05544022 -279 223 C-274.35827331 227.55280472 -269.91747492 232.17576039 -265.67431641 237.10302734 C-263.14129783 239.97289528 -260.42776203 242.64223189 -257.6875 245.3125 C-254.84871519 248.08145 -252.21359597 250.67960605 -250 254 C-246.57458284 252.85819428 -246.12231287 252.14801848 -244.0625 249.3125 C-240.89934362 245.10610388 -237.56756493 241.10176536 -234.125 237.125 C-230.52696035 232.95981455 -226.96794525 228.77503069 -223.5 224.5 C-220.04996947 220.24851047 -216.51339764 216.0827833 -212.9375 211.9375 C-208.8709741 207.22104082 -204.91613382 202.44158014 -201.0546875 197.5546875 C-198.14800755 193.94067858 -195.13991503 190.41603007 -192.13427734 186.88427734 C-189.23683996 183.47511594 -186.38247953 180.03638783 -183.5625 176.5625 C-179.60556582 171.69950576 -175.53564058 166.94299797 -171.44384766 162.19384766 C-167.64836633 157.77968234 -163.94722087 153.29666802 -160.27734375 148.77734375 C-157.25580056 145.09240857 -154.16964049 141.46431679 -151.08349609 137.83349609 C-148.20442157 134.44026525 -145.36788508 131.0172328 -142.5625 127.5625 C-138.60556582 122.69950576 -134.53564058 117.94299797 -130.44384766 113.19384766 C-126.64598499 108.77691282 -122.94319959 104.29046003 -119.26953125 99.76953125 C-114.45311061 93.89200589 -109.505057 88.12388086 -104.58398438 82.33398438 C-99.09729486 75.87593074 -93.66222871 69.38502384 -88.3125 62.8125 C-85.2756723 59.1190609 -82.18039045 55.47701514 -79.08374023 51.83374023 C-76.2045468 48.44045891 -73.36795763 45.01732214 -70.5625 41.5625 C-66.6489023 36.75596022 -62.63644892 32.04274803 -58.59326172 27.34545898 C-55.57773751 23.84205884 -52.57671413 20.32742873 -49.59619141 16.79418945 C-48.22219565 15.16611164 -46.84379545 13.54184925 -45.46484375 11.91796875 C-43.96365692 10.14081097 -42.47358352 8.35408389 -41.00390625 6.55078125 C-31.00730242 -5.49412448 -13.61178538 -8.26513212 0 0 Z " fill="#851CED" transform="translate(720,600)"/>
<path d="M0 0 C6.64970799 4.63238085 11.82610203 10.05691127 14 18 C15.19301205 28.48146298 14.4918009 37.74632892 8.1875 46.5234375 C5.87320889 49.42480981 3.45497965 52.21849172 1 55 C-0.05458979 56.2137984 -1.10791338 57.42869774 -2.16015625 58.64453125 C-3.83061285 60.57438315 -5.50247215 62.50283151 -7.18115234 64.42553711 C-11.28236145 69.12979418 -15.23024515 73.92890941 -19.09765625 78.828125 C-20.91887802 80.90738435 -22.72745841 82.44110733 -25 84 C-24.1875 81.0625 -24.1875 81.0625 -23 78 C-22.01 77.67 -21.02 77.34 -20 77 C-19.71125 76.030625 -19.4225 75.06125 -19.125 74.0625 C-18 71 -18 71 -15.375 69.625 C-14.199375 69.315625 -14.199375 69.315625 -13 69 C-13 67.35 -13 65.7 -13 64 C-12.01 64 -11.02 64 -10 64 C-9.505 62.515 -9.505 62.515 -9 61 C-7.37897032 59.28891311 -5.70496537 57.62746694 -4 56 C2.11025043 50.25124464 2.11025043 50.25124464 6 43 C6.66 43 7.32 43 8 43 C8.33 40.69 8.66 38.38 9 36 C9.66 36 10.32 36 11 36 C11.58577529 22.19542409 11.58577529 22.19542409 8 9 C6.06538076 7.7564949 6.06538076 7.7564949 4 7 C3.34 6.34 2.68 5.68 2 5 C1.13375 4.505 0.2675 4.01 -0.625 3.5 C-1.40875 3.005 -2.1925 2.51 -3 2 C-3 1.34 -3 0.68 -3 0 C-4.11375 0.020625 -5.2275 0.04125 -6.375 0.0625 C-10 0 -10 0 -12 -1 C-19.4859933 -1.78059075 -25.53919946 -0.94448875 -32 3 C-34.16666667 4.83333333 -34.16666667 4.83333333 -36 7 C-37.81684139 8.57000993 -39.66093454 10.10304225 -41.51171875 11.6328125 C-43.12382018 12.95085776 -43.12382018 12.95085776 -44 15 C-44.66 15 -45.32 15 -46 15 C-47.20628008 17.33214148 -48.1654738 19.49642139 -49 22 C-50.875 23.75 -50.875 23.75 -53 25 C-53.99 24.67 -54.98 24.34 -56 24 C-55.14277344 23.01 -54.28554688 22.02 -53.40234375 21 C-52.85143066 20.36360596 -52.30051758 19.72721191 -51.73291016 19.0715332 C-50.53212423 17.68607379 -49.32996594 16.30180266 -48.12646484 14.91870117 C-45.66450306 12.08794756 -43.21211364 9.25704974 -40.82421875 6.36328125 C-30.9088458 -5.60354818 -13.44822713 -8.16581887 0 0 Z " fill="#F270BF" transform="translate(720,600)"/>
<path d="M0 0 C0.99 0.33 1.98 0.66 3 1 C-0.88909849 6.45998925 -5.14163143 11.43574207 -9.66015625 16.3828125 C-11.93628354 18.92873117 -14.10294711 21.5322456 -16.25 24.1875 C-19.90846313 28.70941159 -23.67696607 33.11775301 -27.5 37.5 C-31.99520733 42.65564063 -36.38623664 47.87511424 -40.69140625 53.19140625 C-43.91929353 57.11839602 -47.24231422 60.96082059 -50.56103516 64.81103516 C-53.5725803 68.31254253 -56.53066209 71.84795521 -59.4375 75.4375 C-65.12214331 82.43717008 -71.06791289 89.21028561 -77 96 C-78.18142578 97.35351562 -78.18142578 97.35351562 -79.38671875 98.734375 C-80.92250174 100.49133566 -82.45977001 102.24693824 -84 104 C-84 100.79604584 -83.25664978 98.90600261 -82 96 C-81.01 96 -80.02 96 -79 96 C-79 95.34 -79 94.68 -79 94 C-78.34 94 -77.68 94 -77 94 C-76.855625 93.05125 -76.71125 92.1025 -76.5625 91.125 C-76 88 -76 88 -75 86 C-74.195625 85.896875 -73.39125 85.79375 -72.5625 85.6875 C-71.716875 85.460625 -70.87125 85.23375 -70 85 C-68.66096786 82.65245602 -68.66096786 82.65245602 -68 80 C-66.73334632 76.20003897 -65.09388699 75.96233041 -61.70703125 74.17578125 C-59.0978389 72.37860299 -58.28943708 69.82448121 -57 67 C-55.66666667 66.33333333 -54.33333333 65.66666667 -53 65 C-52.18828772 62.44480079 -52.18828772 62.44480079 -52 60 C-51.34 60 -50.68 60 -50 60 C-49.505 59.01 -49.505 59.01 -49 58 C-48.34 58 -47.68 58 -47 58 C-46.67 57.01 -46.34 56.02 -46 55 C-45.34 55 -44.68 55 -44 55 C-43.896875 54.071875 -43.79375 53.14375 -43.6875 52.1875 C-42.99158743 48.96099626 -42.70392137 47.80261425 -40 46 C-38.68 46 -37.36 46 -36 46 C-35.67 44.02 -35.34 42.04 -35 40 C-34.34 40 -33.68 40 -33 40 C-33 39.34 -33 38.68 -33 38 C-31.1875 35.875 -31.1875 35.875 -29 34 C-28.01 34 -27.02 34 -26 34 C-26.33 32.35 -26.66 30.7 -27 29 C-25.68 29 -24.36 29 -23 29 C-22.505 27.515 -22.505 27.515 -22 26 C-21.34 26.33 -20.68 26.66 -20 27 C-19.7834375 26.071875 -19.7834375 26.071875 -19.5625 25.125 C-19 23 -19 23 -18 21 C-17.34 21 -16.68 21 -16 21 C-16 20.34 -16 19.68 -16 19 C-15.34 19 -14.68 19 -14 19 C-13.505 17.515 -13.505 17.515 -13 16 C-12 15 -11 14 -10 13 C-9.54625 12.236875 -9.0925 11.47375 -8.625 10.6875 C-6.21787574 6.70648681 -3.29334549 3.29334549 0 0 Z " fill="#C439E8" transform="translate(693,683)"/>
<path d="M0 0 C0.495 0.99 0.495 0.99 1 2 C-0.82416851 5.64833701 -3.14310859 8.14310859 -6 11 C-6.33 11.99 -6.66 12.98 -7 14 C-8.64302953 15.68997323 -10.31471312 17.35216394 -12 19 C-13.0977993 20.19520595 -14.18097331 21.4039912 -15.25 22.625 C-15.75015625 23.19476562 -16.2503125 23.76453125 -16.765625 24.3515625 C-18.20736914 26.09626096 -18.20736914 26.09626096 -19 29 C-20.62461974 30.35384978 -22.2504469 31.70628095 -23.8828125 33.05078125 C-28.61306706 37.40575731 -33.94692446 42.84077338 -36 49 C-37.41521652 50.14565147 -38.83201286 51.2894217 -40.2578125 52.421875 C-42.9853994 54.89260394 -45.06896636 57.80281468 -47.27734375 60.734375 C-50.21302856 64.59536636 -53.42178181 68.21838377 -56.63671875 71.84765625 C-57.16910156 72.45480469 -57.70148438 73.06195312 -58.25 73.6875 C-58.96929687 74.49767578 -58.96929687 74.49767578 -59.703125 75.32421875 C-61.08915108 76.99125283 -61.08915108 76.99125283 -62.0078125 79.12890625 C-63.41670264 81.78582899 -65.21917762 82.12184556 -68 83 C-68.99 81.35 -69.98 79.7 -71 78 C-69.35 78.33 -67.7 78.66 -66 79 C-65.56171875 78.44054687 -65.1234375 77.88109375 -64.671875 77.3046875 C-60.07818031 71.49721169 -55.33112944 65.85146266 -50.49511719 60.24560547 C-47.44499812 56.70374816 -44.44561254 53.12989277 -41.5 49.5 C-38.04996947 45.24851047 -34.51339764 41.0827833 -30.9375 36.9375 C-26.87523962 32.22598808 -22.92458958 27.45143796 -19.06640625 22.5703125 C-12.89718957 14.89669326 -6.42121819 7.46249682 0 0 Z " fill="#780FF4" transform="translate(538,775)"/>
<path d="M0 0 C0.99 0.33 1.98 0.66 3 1 C0.52225519 7.68991098 0.52225519 7.68991098 -2 9.1875 C-2.66 9.455625 -3.32 9.72375 -4 10 C-5.05278825 11.29205831 -6.04175747 12.63634717 -7 14 C-10.46321181 18.22834 -14.13532215 22.13532215 -18 26 C-21.7871479 30.06589737 -24.74167209 33.85603087 -27 39 C-27.99 38.67 -28.98 38.34 -30 38 C-30.144375 38.825 -30.28875 39.65 -30.4375 40.5 C-32.7278063 45.6302861 -36.69577403 48.51056578 -41 52 C-41 48.56972892 -40.65893665 48.24708171 -38.47265625 45.8125 C-37.93237793 45.20196777 -37.39209961 44.59143555 -36.83544922 43.96240234 C-36.25037598 43.31480957 -35.66530273 42.6672168 -35.0625 42 C-33.85688395 40.63907319 -32.65246149 39.27708809 -31.44921875 37.9140625 C-30.8567334 37.24536133 -30.26424805 36.57666016 -29.65380859 35.88769531 C-27.50120171 33.43066012 -25.43055604 30.91355555 -23.375 28.375 C-20.11476654 24.34906034 -16.79511726 20.38199683 -13.4375 16.4375 C-8.84936837 11.04342103 -4.38262762 5.56304882 0 0 Z " fill="#BD2EC9" transform="translate(663,625)"/>
<path d="M0 0 C1.485 0.495 1.485 0.495 3 1 C-0.88420646 6.45312123 -5.12926951 11.42447737 -9.64453125 16.36328125 C-12.01374688 19.0153883 -14.26483641 21.73432638 -16.5 24.5 C-20.81749665 29.83785742 -25.35924678 34.94234697 -30 40 C-30.495 38.515 -30.495 38.515 -31 37 C-30.34 36.01 -29.68 35.02 -29 34 C-28.01 34 -27.02 34 -26 34 C-26.33 32.35 -26.66 30.7 -27 29 C-25.68 29 -24.36 29 -23 29 C-22.67 28.01 -22.34 27.02 -22 26 C-21.34 26.33 -20.68 26.66 -20 27 C-19.7834375 26.071875 -19.7834375 26.071875 -19.5625 25.125 C-19 23 -19 23 -18 21 C-17.34 21 -16.68 21 -16 21 C-16 20.34 -16 19.68 -16 19 C-15.34 19 -14.68 19 -14 19 C-13.67 18.01 -13.34 17.02 -13 16 C-12 15 -11 14 -10 13 C-9.54625 12.236875 -9.0925 11.47375 -8.625 10.6875 C-6.21787574 6.70648681 -3.29334549 3.29334549 0 0 Z " fill="#D246E5" transform="translate(693,683)"/>
<path d="M0 0 C0.33 0.99 0.66 1.98 1 3 C-1.3125 6.1875 -1.3125 6.1875 -4 9 C-4.66 9 -5.32 9 -6 9 C-6.33 10.32 -6.66 11.64 -7 13 C-7.99 13 -8.98 13 -10 13 C-10.2475 13.598125 -10.495 14.19625 -10.75 14.8125 C-12 17 -12 17 -14.0625 18.5 C-16.17191281 19.78331623 -16.17191281 19.78331623 -16.3046875 21.796875 C-17.33936858 25.07530268 -19.48675773 26.53290539 -22.0625 28.75 C-22.98160156 29.54921875 -23.90070312 30.3484375 -24.84765625 31.171875 C-25.91306641 32.07679688 -25.91306641 32.07679688 -27 33 C-27 28.69018108 -24.42571422 26.68646114 -21.6875 23.625 C-20.59072342 22.37276568 -19.49437973 21.1201521 -18.3984375 19.8671875 C-17.55490723 18.9095752 -17.55490723 18.9095752 -16.69433594 17.93261719 C-14.03478451 14.89904239 -11.42118511 11.82731379 -8.8125 8.75 C-8.34352295 8.20166504 -7.8745459 7.65333008 -7.39135742 7.08837891 C-4.93949162 4.21994868 -4.93949162 4.21994868 -3 1 C-2.01 0.67 -1.02 0.34 0 0 Z " fill="#9310E5" transform="translate(598,705)"/>
<path d="M0 0 C0 4.35202372 -2.66970695 6.41115292 -5.4375 9.5 C-6.54154435 10.75547393 -7.64439632 12.01199736 -8.74609375 13.26953125 C-9.57149658 14.20853271 -9.57149658 14.20853271 -10.41357422 15.16650391 C-13.40348083 18.62205926 -16.2266113 22.21051087 -19.0625 25.79296875 C-20.89866279 27.88456547 -22.71126071 29.43160053 -25 31 C-24.1875 28.0625 -24.1875 28.0625 -23 25 C-22.01 24.67 -21.02 24.34 -20 24 C-19.566875 22.5459375 -19.566875 22.5459375 -19.125 21.0625 C-18 18 -18 18 -15.375 16.625 C-14.59125 16.41875 -13.8075 16.2125 -13 16 C-13 14.35 -13 12.7 -13 11 C-12.01 11 -11.02 11 -10 11 C-9.67 10.01 -9.34 9.02 -9 8 C-6.21537003 4.98958922 -3.35324899 2.35969373 0 0 Z " fill="#EA65D3" transform="translate(720,653)"/>
<path d="M0 0 C0.66 0.33 1.32 0.66 2 1 C1.01 1.33 0.02 1.66 -1 2 C-1.59070014 3.94603274 -1.59070014 3.94603274 -2 6 C-2.66 6.66 -3.32 7.32 -4 8 C-4.33 8.66 -4.66 9.32 -5 10 C-5.66 10 -6.32 10 -7 10 C-7.33 11.32 -7.66 12.64 -8 14 C-9.32 14 -10.64 14 -12 14 C-12.061875 14.70125 -12.12375 15.4025 -12.1875 16.125 C-13.76989449 21.72424203 -18.29820969 25.78298557 -23 29 C-23.99 29 -24.98 29 -26 29 C-25.23816406 28.11699219 -24.47632813 27.23398437 -23.69140625 26.32421875 C-12.8183853 14.06824213 -12.8183853 14.06824213 -3 1 C-2.01 0.67 -1.02 0.34 0 0 Z " fill="#840DEE" transform="translate(567,742)"/>
<path d="M0 0 C1.32 0.66 2.64 1.32 4 2 C3.21625 2.61875 2.4325 3.2375 1.625 3.875 C-0.96837647 5.89858661 -0.96837647 5.89858661 -3 8 C-4.80383858 9.5330545 -6.62125462 11.04886039 -8.44140625 12.5625 C-10.11591342 13.93659212 -10.11591342 13.93659212 -11 16 C-11.66 16 -12.32 16 -13 16 C-14.20628008 18.33214148 -15.1654738 20.49642139 -16 23 C-17.875 24.75 -17.875 24.75 -20 26 C-20.99 25.67 -21.98 25.34 -23 25 C-19.78430432 21.28623416 -16.56750293 17.57344875 -13.34765625 13.86328125 C-11.45254841 11.67897288 -9.56376002 9.4901951 -7.68359375 7.29296875 C-7.08675781 6.59816406 -6.48992188 5.90335938 -5.875 5.1875 C-5.12863281 4.31158203 -5.12863281 4.31158203 -4.3671875 3.41796875 C-3 2 -3 2 0 0 Z " fill="#DE45C6" transform="translate(687,599)"/>
<path d="M0 0 C0.7734375 1.68359375 0.7734375 1.68359375 1 4 C-0.7734375 6.41015625 -0.7734375 6.41015625 -3.375 9.0625 C-4.30464548 10.03009693 -5.23166622 11.00022148 -6.15625 11.97265625 C-6.8678125 12.71733154 -6.8678125 12.71733154 -7.59375 13.47705078 C-10.58580312 16.71740275 -13.26455644 20.22511962 -15.9921875 23.6875 C-17.85552878 25.83360513 -19.6602787 27.40521239 -22 29 C-21.690625 28.4225 -21.38125 27.845 -21.0625 27.25 C-20.07416636 25.15705816 -19.4831387 23.25464725 -19 21 C-18.01 21 -17.02 21 -16 21 C-16 20.34 -16 19.68 -16 19 C-15.34 19 -14.68 19 -14 19 C-13.7834375 17.576875 -13.7834375 17.576875 -13.5625 16.125 C-13 13 -13 13 -12 11 C-11.195625 10.896875 -10.39125 10.79375 -9.5625 10.6875 C-8.2940625 10.3471875 -8.2940625 10.3471875 -7 10 C-5.66096786 7.65245602 -5.66096786 7.65245602 -5 5 C-4 2 -4 2 -1.9375 0.8125 C-0.9784375 0.4103125 -0.9784375 0.4103125 0 0 Z " fill="#B42EEC" transform="translate(630,758)"/>
<path d="M0 0 C2.625 2.25 2.625 2.25 4 4 C3.01 4.33 2.02 4.66 1 5 C-1.1875 3.6875 -1.1875 3.6875 -3 2 C-3 1.34 -3 0.68 -3 0 C-4.11375 0.020625 -5.2275 0.04125 -6.375 0.0625 C-10 0 -10 0 -12 -1 C-13.83128771 -1.09608608 -15.66619959 -1.12982579 -17.5 -1.125 C-18.4796875 -1.12757813 -19.459375 -1.13015625 -20.46875 -1.1328125 C-22.99431054 -1.16940053 -22.99431054 -1.16940053 -25 0 C-27.3329866 0.04022391 -29.66706666 0.04320247 -32 0 C-24.96553242 -8.08963772 -8.1741183 -4.81021673 0 0 Z " fill="#F26AAB" transform="translate(720,600)"/>
<path d="M0 0 C3.60411654 1.44633744 5.11402568 3.19136668 7.1875 6.4375 C7.95126953 7.61119141 7.95126953 7.61119141 8.73046875 8.80859375 C11.24597724 13.1507484 11.18319032 17.18825233 11.1875 22.0625 C11.19974609 22.79533203 11.21199219 23.52816406 11.22460938 24.28320312 C11.22986299 26.19026507 11.12218272 28.09684886 11 30 C10.34 30.66 9.68 31.32 9 32 C9.03480469 31.0821875 9.06960938 30.164375 9.10546875 29.21875 C9.265707 21.95461601 9.00367267 16.60807988 6 10 C5.855625 9.05125 5.71125 8.1025 5.5625 7.125 C5.376875 6.42375 5.19125 5.7225 5 5 C3.03327085 3.8499169 3.03327085 3.8499169 1 3 C0.67 2.01 0.34 1.02 0 0 Z " fill="#F880C2" transform="translate(723,604)"/>
<path d="M0 0 C1.37562854 1.28965176 2.70766393 2.62689293 4 4 C4 4.66 4 5.32 4 6 C5.32 6.66 6.64 7.32 8 8 C8 8.66 8 9.32 8 10 C8.66 10 9.32 10 10 10 C10 10.66 10 11.32 10 12 C10.66 12 11.32 12 12 12 C14.625 14.25 14.625 14.25 17 17 C17 18.32 17 19.64 17 21 C12.0378548 17.12710619 8.03780077 12.81719023 4 8 C3.23042969 7.08541016 3.23042969 7.08541016 2.4453125 6.15234375 C1.29104272 4.77308919 0.14454883 3.38733192 -1 2 C-0.67 1.34 -0.34 0.68 0 0 Z " fill="#6A12F9" transform="translate(331,793)"/>
<path d="M0 0 C0.99 0.33 1.98 0.66 3 1 C1.68 3.31 0.36 5.62 -1 8 C-1.99 7.67 -2.98 7.34 -4 7 C-4.144375 7.825 -4.28875 8.65 -4.4375 9.5 C-6.7278063 14.6302861 -10.69577403 17.51056578 -15 21 C-15 17.4725356 -14.49746394 17.06563379 -12.2265625 14.53125 C-11.3603125 13.55091797 -11.3603125 13.55091797 -10.4765625 12.55078125 C-9.86554687 11.87402344 -9.25453125 11.19726562 -8.625 10.5 C-7.42826892 9.15751322 -6.23290184 7.81380899 -5.0390625 6.46875 C-4.50490723 5.87513672 -3.97075195 5.28152344 -3.42041016 4.66992188 C-1.81333508 2.84628167 -1.81333508 2.84628167 0 0 Z " fill="#B320DA" transform="translate(637,656)"/>
<path d="M0 0 C3.46710742 1.15570247 4.3966524 2.71418404 6.59765625 5.50390625 C8.70190104 7.74882479 11.20815813 8.79443192 14 10 C14.33 10.33 14.66 10.66 15 11 C17.32817964 11.36760731 19.6618385 11.70241581 22 12 C22.33 12.99 22.66 13.98 23 15 C13.43281226 14.48747209 7.86983487 10.21494537 1.25 3.55078125 C0 2 0 2 0 0 Z " fill="#7517F7" transform="translate(445,916)"/>
<path d="M0 0 C0 3 0 3 -1.4375 4.5 C-1.953125 4.995 -2.46875 5.49 -3 6 C-3.33 6.99 -3.66 7.98 -4 9 C-5.60807036 10.81781867 -6.8214852 11.9107426 -9 13 C-9.35015049 14.66321482 -9.68197057 16.33034549 -10 18 C-10.66 18.99 -11.32 19.98 -12 21 C-12.76555855 18.74335355 -13.12533965 17.41923952 -12.43359375 15.10546875 C-9.29558776 9.06326899 -5.72321642 3.81547762 0 0 Z " fill="#6612F2" transform="translate(324,735)"/>
<path d="M0 0 C0.99 0.33 1.98 0.66 3 1 C-1.80768608 7.82066033 -7.32624925 13.9001573 -13 20 C-13.33 19.01 -13.66 18.02 -14 17 C-13.401875 16.443125 -12.80375 15.88625 -12.1875 15.3125 C-9.99164311 12.99116557 -8.62893856 10.73661679 -7 8 C-4.81925442 5.1872549 -2.5181086 2.5181086 0 0 Z " fill="#D953D8" transform="translate(693,683)"/>
<path d="M0 0 C0.33 0 0.66 0 1 0 C1.10957031 0.61488281 1.21914063 1.22976563 1.33203125 1.86328125 C1.49058594 2.67152344 1.64914062 3.47976563 1.8125 4.3125 C1.96332031 5.11300781 2.11414063 5.91351562 2.26953125 6.73828125 C3.08641453 9.26756156 4.02688805 10.27161511 6 12 C6.45375 12.61875 6.9075 13.2375 7.375 13.875 C9.06138872 16.18583427 9.06138872 16.18583427 11.6875 18.625 C14 21 14 21 14 23 C8.35633077 20.48749401 3.60096027 16.13521387 0.78125 10.61328125 C-0.63366545 6.65020788 -1.31540156 4.08418386 0 0 Z " fill="#6B14F7" transform="translate(311,765)"/>
<path d="M0 0 C0.99 0.33 1.98 0.66 3 1 C0.53012048 7.6686747 0.53012048 7.6686747 -2 9.25 C-2.66 9.4975 -3.32 9.745 -4 10 C-5.70921589 11.5412312 -5.70921589 11.5412312 -7 13 C-7.99 12.67 -8.98 12.34 -10 12 C-6.7 8.04 -3.4 4.08 0 0 Z " fill="#D438D1" transform="translate(663,625)"/>
<path d="M0 0 C2.93230193 1.32120828 4.98664899 2.74638197 7.234375 5.0390625 C8.09482422 5.90917969 8.09482422 5.90917969 8.97265625 6.796875 C9.55917969 7.40015625 10.14570313 8.0034375 10.75 8.625 C11.35199219 9.23601563 11.95398438 9.84703125 12.57421875 10.4765625 C14.05405305 11.97988624 15.52764676 13.48934856 17 15 C16.34 15.66 15.68 16.32 15 17 C13.5 15.625 13.5 15.625 12 14 C12 13.34 12 12.68 12 12 C11.38125 11.938125 10.7625 11.87625 10.125 11.8125 C8 11 8 11 6.75 8.4375 C6.5025 7.633125 6.255 6.82875 6 6 C5.34 6 4.68 6 4 6 C2.61061923 4.03852126 1.2739589 2.03833424 0 0 Z " fill="#7014F9" transform="translate(388,770)"/>
<path d="M0 0 C1.32 0.66 2.64 1.32 4 2 C3.21625 2.61875 2.4325 3.2375 1.625 3.875 C-0.96837647 5.89858661 -0.96837647 5.89858661 -3 8 C-4.65261839 9.02304948 -6.31791365 10.02616054 -8 11 C-8.33 10.01 -8.66 9.02 -9 8 C-6.03 5.36 -3.06 2.72 0 0 Z " fill="#DE4DB0" transform="translate(687,599)"/>
<path d="M0 0 C3.04332765 1.3584202 5.12309151 2.88463024 7.453125 5.2578125 C8.071875 5.88300781 8.690625 6.50820313 9.328125 7.15234375 C9.96234375 7.80332031 10.5965625 8.45429687 11.25 9.125 C11.8996875 9.78371094 12.549375 10.44242188 13.21875 11.12109375 C14.81711727 12.74296643 16.41061897 14.3693281 18 16 C17.34 16.66 16.68 17.32 16 18 C14.33333333 16.33333333 12.66666667 14.66666667 11 13 C10.51273437 12.52433594 10.02546875 12.04867187 9.5234375 11.55859375 C7.34366645 9.32852029 5.39172637 6.92284554 3.40234375 4.5234375 C2.05626824 2.88013901 2.05626824 2.88013901 0 2 C0 1.34 0 0.68 0 0 Z " fill="#7114F7" transform="translate(448,833)"/>
<path d="M0 0 C-0.47957233 4.28553996 -3.2187222 6.76931405 -6.0625 9.75 C-6.53494141 10.25660156 -7.00738281 10.76320313 -7.49414062 11.28515625 C-8.65630711 12.52949613 -9.82730161 13.76558064 -11 15 C-11.33 14.34 -11.66 13.68 -12 13 C-10.6875 10.375 -10.6875 10.375 -9 8 C-8.34 8 -7.68 8 -7 8 C-6.5978125 6.576875 -6.5978125 6.576875 -6.1875 5.125 C-4.90422632 1.74796399 -3.8613658 0 0 0 Z " fill="#E35CD8" transform="translate(707,669)"/>
<path d="M0 0 C4.98883318 2.16873608 8.19961341 4.81735787 11.875 8.6875 C12.37257813 9.19861328 12.87015625 9.70972656 13.3828125 10.23632812 C14.59558176 11.48408112 15.79880719 12.74109864 17 14 C16.01 14.33 15.02 14.66 14 15 C13.34 13.68 12.68 12.36 12 11 C11.34 11 10.68 11 10 11 C10 10.34 10 9.68 10 9 C9.34 9 8.68 9 8 9 C8 8.34 8 7.68 8 7 C7.4225 6.71125 6.845 6.4225 6.25 6.125 C4.16666667 5.08333333 2.08333333 4.04166667 0 3 C0 2.01 0 1.02 0 0 Z " fill="#6F14F3" transform="translate(352,733)"/>
<path d="M0 0 C4.54822201 2.40490403 7.77351595 5.5367133 11.3125 9.1875 C11.86228516 9.74630859 12.41207031 10.30511719 12.97851562 10.88085938 C14.32363696 12.24937412 15.66246643 13.62406833 17 15 C13.4390538 15 12.65674999 14.22824192 10 12 C7.64628212 9.64628212 5.56467463 7.11652125 3.4375 4.55859375 C2.06340788 2.88408658 2.06340788 2.88408658 0 2 C0 1.34 0 0.68 0 0 Z " fill="#7314F8" transform="translate(424,808)"/>
<path d="M0 0 C0.66 0.33 1.32 0.66 2 1 C2 1.99 2 2.98 2 4 C2.99 4.33 3.98 4.66 5 5 C7.6875 7.4375 7.6875 7.4375 10 10 C10 10.66 10 11.32 10 12 C10.66 12 11.32 12 12 12 C11.67 12.99 11.34 13.98 11 15 C7 11 3 7 -1 3 C-0.67 2.01 -0.34 1.02 0 0 Z " fill="#6F14F8" transform="translate(428,896)"/>
<path d="M0 0 C1.07765625 0.00902344 2.1553125 0.01804687 3.265625 0.02734375 C4.08546875 0.03894531 4.9053125 0.05054688 5.75 0.0625 C5.75 0.3925 5.75 0.7225 5.75 1.0625 C2.45 1.0625 -0.85 1.0625 -4.25 1.0625 C-4.25 1.7225 -4.25 2.3825 -4.25 3.0625 C-7.20664519 4.5408226 -9.99229737 4.12282783 -13.25 4.0625 C-9.4458916 -0.31222466 -5.57374401 -0.06058417 0 0 Z " fill="#F167BB" transform="translate(701.25,595.9375)"/>
<path d="M0 0 C0 3.96130371 -1.34877125 4.82914401 -4 7.6875 C-4.7425 8.49574219 -5.485 9.30398438 -6.25 10.13671875 C-6.8275 10.75160156 -7.405 11.36648438 -8 12 C-9 10 -9 10 -8.81640625 8.078125 C-7.74343539 5.34692645 -6.32499166 4.41745449 -3.9375 2.75 C-3.20402344 2.22921875 -2.47054687 1.7084375 -1.71484375 1.171875 C-1.14894531 0.78515625 -0.58304688 0.3984375 0 0 Z " fill="#AD2AF2" transform="translate(601,794)"/>
<path d="M0 0 C1.9375 0.3125 1.9375 0.3125 4 1 C4.33 1.99 4.66 2.98 5 4 C6.2684375 5.2375 6.2684375 5.2375 7.5625 6.5 C10 9 10 9 10 12 C8.33333333 10.33333333 6.66666667 8.66666667 5 7 C4.071875 6.113125 3.14375 5.22625 2.1875 4.3125 C0 2 0 2 0 0 Z " fill="#6E14F4" transform="translate(365,831)"/>
<path d="M0 0 C5.28 0 10.56 0 16 0 C15.67 0.66 15.34 1.32 15 2 C12.05859375 2.4140625 12.05859375 2.4140625 8.4375 2.625 C7.23996094 2.69976563 6.04242188 2.77453125 4.80859375 2.8515625 C3.88175781 2.90054688 2.95492188 2.94953125 2 3 C2 2.34 2 1.68 2 1 C1.34 0.67 0.68 0.34 0 0 Z " fill="#6B13F4" transform="translate(332,731)"/>
<path d="M0 0 C0 3.96130371 -1.34877125 4.82914401 -4 7.6875 C-4.7425 8.49574219 -5.485 9.30398438 -6.25 10.13671875 C-6.8275 10.75160156 -7.405 11.36648438 -8 12 C-8 11.01 -8 10.02 -8 9 C-7.505 8.54625 -7.01 8.0925 -6.5 7.625 C-4.72110101 6.03775477 -4.72110101 6.03775477 -4.8125 3.3125 C-4.874375 2.549375 -4.93625 1.78625 -5 1 C-3.35 0.67 -1.7 0.34 0 0 Z " fill="#AB28F2" transform="translate(590,807)"/>
<path d="M0 0 C3.3 0.33 6.6 0.66 10 1 C10 1.66 10 2.32 10 3 C6.04 3 2.08 3 -2 3 C-1.34 2.01 -0.68 1.02 0 0 Z " fill="#2D0E1C" transform="translate(697,593)"/>
<path d="M0 0 C0.66 0 1.32 0 2 0 C0.63629701 2.99220268 -0.94908083 5.29026529 -3.125 7.75 C-3.93324219 8.67039062 -3.93324219 8.67039062 -4.7578125 9.609375 C-5.16773438 10.06828125 -5.57765625 10.5271875 -6 11 C-6.33 10.01 -6.66 9.02 -7 8 C-6.401875 7.4225 -5.80375 6.845 -5.1875 6.25 C-2.98376999 4.09233444 -2.98376999 4.09233444 -1.375 1.75 C-0.694375 0.88375 -0.694375 0.88375 0 0 Z " fill="#E153E6" transform="translate(686,692)"/>
<path d="M0 0 C0.33 1.32 0.66 2.64 1 4 C0.195625 4.61875 -0.60875 5.2375 -1.4375 5.875 C-4.03874519 7.74164041 -4.03874519 7.74164041 -5 10 C-5.99 9.67 -6.98 9.34 -8 9 C-5.36 6.03 -2.72 3.06 0 0 Z " fill="#C229D7" transform="translate(646,646)"/>
<path d="M0 0 C3.80635497 3.20760251 7.54563567 6.40746109 11 10 C10.34 10.66 9.68 11.32 9 12 C7.49405319 10.38050958 5.99539332 8.75424026 4.5 7.125 C3.6646875 6.22007812 2.829375 5.31515625 1.96875 4.3828125 C0 2 0 2 0 0 Z " fill="#7314F4" transform="translate(413,882)"/>
<path d="M0 0 C2.69082872 0.17635452 5.32851446 0.61835921 8 1 C8.33 1.99 8.66 2.98 9 4 C1.25 3.25 1.25 3.25 -1 1 C-0.67 0.67 -0.34 0.34 0 0 Z " fill="#6F14EB" transform="translate(459,927)"/>
<path d="M0 0 C6.57142857 5.14285714 6.57142857 5.14285714 8 9 C3.7257442 7.4169423 1.73468206 4.49431596 -1 1 C-0.67 0.67 -0.34 0.34 0 0 Z " fill="#6B15F0" transform="translate(378,844)"/>
<path d="M0 0 C0 3.58912412 -0.66436554 4.10857029 -3 6.6875 C-3.556875 7.31011719 -4.11375 7.93273437 -4.6875 8.57421875 C-5.120625 9.04472656 -5.55375 9.51523437 -6 10 C-6 7.29745539 -5.96569331 5.49470772 -5 3 C-3 1.8125 -3 1.8125 -1 1 C-0.67 0.67 -0.34 0.34 0 0 Z " fill="#A625F3" transform="translate(579,820)"/>
<path d="M0 0 C4.67692308 1.47692308 4.67692308 1.47692308 6.3125 4.125 C6.539375 4.74375 6.76625 5.3625 7 6 C4 6 4 6 1.8125 4.125 C0 2 0 2 0 0 Z " fill="#6513ED" transform="translate(342,807)"/>
<path d="M0 0 C0.99 0.33 1.98 0.66 3 1 C2.01 3.31 1.02 5.62 0 8 C-0.99 7.67 -1.98 7.34 -3 7 C-2.01 4.69 -1.02 2.38 0 0 Z " fill="#C639BD" transform="translate(663,625)"/>
<path d="M0 0 C3.21043882 1.38188453 5.04936365 2.92421903 7.25 5.625 C8.03117187 6.57246094 8.03117187 6.57246094 8.828125 7.5390625 C9.40820312 8.26222656 9.40820312 8.26222656 10 9 C5.71616807 7.02706248 2.15162133 4.30324265 0 0 Z " fill="#7214FC" transform="translate(407,790)"/>
<path d="M0 0 C0 3.58912412 -0.66436554 4.10857029 -3 6.6875 C-3.556875 7.31011719 -4.11375 7.93273437 -4.6875 8.57421875 C-5.120625 9.04472656 -5.55375 9.51523437 -6 10 C-6.66 9.67 -7.32 9.34 -8 9 C-5.36 6.03 -2.72 3.06 0 0 Z " fill="#B81BEB" transform="translate(620,677)"/>
<path d="M0 0 C1.98 0.99 1.98 0.99 4 2 C4 2.66 4 3.32 4 4 C4.99 4.33 5.98 4.66 7 5 C7.33 5.99 7.66 6.98 8 8 C7.01 8.495 7.01 8.495 6 9 C4.99406757 7.8803014 3.9954151 6.7540588 3 5.625 C2.443125 4.99851562 1.88625 4.37203125 1.3125 3.7265625 C0 2 0 2 0 0 Z " fill="#6F14F6" transform="translate(349,814)"/>
<path d="M0 0 C0.99 0.495 0.99 0.495 2 1 C1.01 1.495 1.01 1.495 0 2 C0 1.34 0 0.68 0 0 Z M-1 2 C-0.34 2.33 0.32 2.66 1 3 C1 3.66 1 4.32 1 5 C-1.2727675 6.49524178 -3.5679943 7.78399715 -6 9 C-4.70700306 6.11562221 -3.34058637 4.12780579 -1 2 Z " fill="#100614" transform="translate(669,715)"/>
<path d="M0 0 C0.66 0.33 1.32 0.66 2 1 C1.67 4.96 1.34 8.92 1 13 C0.67 13 0.34 13 0 13 C-0.19466332 11.20909747 -0.38051213 9.41723495 -0.5625 7.625 C-0.66691406 6.62726562 -0.77132813 5.62953125 -0.87890625 4.6015625 C-1 2 -1 2 0 0 Z " fill="#050315" transform="translate(309,752)"/>
</svg>
