<?xml version="1.0" standalone="no"?>
<!DOCTYPE svg PUBLIC "-//W3C//DTD SVG 20010904//EN"
 "http://www.w3.org/TR/2001/REC-SVG-20010904/DTD/svg10.dtd">
<svg version="1.0" xmlns="http://www.w3.org/2000/svg"
 width="1024.000000pt" height="1536.000000pt" viewBox="0 0 1024.000000 1536.000000"
 preserveAspectRatio="xMidYMid meet">

<g transform="translate(0.000000,1536.000000) scale(0.100000,-0.100000)"
fill="#000000" stroke="none">
<path d="M0 7680 l0 -7680 5120 0 5120 0 0 7680 0 7680 -5120 0 -5120 0 0
-7680z m7161 1691 c115 -55 171 -138 177 -261 6 -128 -4 -145 -284 -475 -135
-159 -257 -301 -272 -315 -29 -28 10 21 185 229 67 80 119 149 116 154 -3 5
-9 3 -14 -4 -7 -11 -9 -11 -9 -1 0 7 -4 10 -10 7 -5 -3 -10 -1 -10 5 0 6 8 10
18 8 9 -2 16 2 15 9 -2 7 4 10 13 6 13 -5 13 -7 2 -14 -7 -5 -8 -9 -2 -9 6 0
19 10 30 22 11 13 12 17 3 11 -12 -10 -18 -8 -32 7 -9 11 -13 20 -9 20 9 0 9
76 0 85 -4 4 -3 18 2 31 7 16 6 24 -1 24 -6 0 -9 9 -6 19 3 12 -1 22 -10 25
-8 4 -13 13 -9 21 3 8 0 17 -6 21 -7 5 -3 10 10 15 12 5 22 14 22 20 0 9 -4 9
-14 0 -10 -8 -16 -9 -21 -1 -3 5 -2 10 3 10 14 0 3 103 -11 112 -9 6 -9 8 1 8
6 0 12 5 12 10 0 6 -3 9 -7 8 -5 -2 -8 2 -8 7 0 6 3 9 6 8 3 -1 5 15 5 37 -1
25 -8 45 -21 57 -11 10 -20 31 -20 48 0 19 -5 29 -12 28 -7 -2 -13 2 -13 8 0
6 6 9 13 6 6 -2 21 0 32 5 13 5 2 6 -32 3 -66 -7 -113 -27 -158 -66 -41 -37
-47 -32 -7 6 29 28 71 53 112 66 46 15 171 4 221 -20z m-371 -95 c0 -2 -8 -10
-17 -17 -16 -13 -17 -12 -4 4 13 16 21 21 21 13z m250 -16 c0 -5 -2 -10 -4
-10 -3 0 -8 5 -11 10 -3 6 -1 10 4 10 6 0 11 -4 11 -10z m-6 -35 c-4 -8 -10
-12 -15 -9 -11 6 -2 24 11 24 5 0 7 -7 4 -15z m-284 2 c0 -2 -10 -12 -22 -23
l-23 -19 19 23 c18 21 26 27 26 19z m10 -940 c0 -2 -12 -14 -27 -28 l-28 -24
24 28 c23 25 31 32 31 24z m-50 -60 c0 -2 -10 -12 -22 -23 l-23 -19 19 23 c18
21 26 27 26 19z"/>
<path d="M7169 8803 c-13 -16 -12 -17 4 -4 16 13 21 21 13 21 -2 0 -10 -8 -17
-17z"/>
</g>
</svg>
