<?xml version="1.0" encoding="UTF-8"?>
<svg version="1.1" xmlns="http://www.w3.org/2000/svg" width="1024" height="1024">
<path d="M0 0 C337.92 0 675.84 0 1024 0 C1024 337.92 1024 675.84 1024 1024 C686.08 1024 348.16 1024 0 1024 C0 686.08 0 348.16 0 0 Z " fill="#0D0D0D" transform="translate(0,0)"/>
<path d="M0 0 C8.69118745 6.48552475 14.59081094 13.83337643 17.19921875 24.484375 C17.28171875 25.45375 17.36421875 26.423125 17.44921875 27.421875 C17.55234375 28.618125 17.65546875 29.814375 17.76171875 31.046875 C17.49896184 46.37436114 7.59968978 58.7288194 -2.4765625 69.16015625 C-4.95096855 71.73601519 -7.15406899 74.38927025 -9.23828125 77.296875 C-10.38296875 78.84375 -10.38296875 78.84375 -11.55078125 80.421875 C-12.21078125 80.421875 -12.87078125 80.421875 -13.55078125 80.421875 C-13.88529297 81.23398437 -13.88529297 81.23398437 -14.2265625 82.0625 C-15.97159477 85.17164304 -18.30398737 87.60032273 -20.73828125 90.171875 C-21.73111237 91.23768206 -22.72329919 92.30408967 -23.71484375 93.37109375 C-24.19856445 93.88978027 -24.68228516 94.4084668 -25.18066406 94.94287109 C-27.02188354 96.93041699 -28.8241481 98.94989659 -30.61328125 100.984375 C-31.40412109 101.88349609 -31.40412109 101.88349609 -32.2109375 102.80078125 C-33.73918095 104.59341935 -33.73918095 104.59341935 -35.55078125 107.421875 C-36.21078125 107.421875 -36.87078125 107.421875 -37.55078125 107.421875 C-37.78410156 107.97359375 -38.01742188 108.5253125 -38.2578125 109.09375 C-39.89097409 112.03442767 -41.94417332 114.21264751 -44.23828125 116.671875 C-47.21588265 119.88836705 -50.18161972 123.10761681 -53.05078125 126.421875 C-56.68023066 130.59916583 -60.41557145 134.67724739 -64.14453125 138.765625 C-66.70542226 141.59258261 -69.21523602 144.45884048 -71.71484375 147.33984375 C-73.91711104 149.83730857 -76.1721816 152.283152 -78.42578125 154.734375 C-81.69607598 158.31448712 -84.83104742 161.95103737 -87.86328125 165.734375 C-91.93461862 170.7857157 -96.29405537 175.49661392 -100.73999023 180.21435547 C-104.91118863 184.6655124 -108.76121941 189.28018593 -112.57421875 194.04296875 C-114.80922085 196.73292188 -117.22254769 199.12431675 -119.73828125 201.546875 C-122.00126698 203.88789473 -124.01026448 206.38501631 -126.05078125 208.921875 C-128.59572057 212.08585361 -131.12599115 215.10541045 -134.05078125 217.921875 C-136.81567204 220.59229344 -139.2144669 223.41783492 -141.61328125 226.421875 C-146.55280538 232.56450792 -151.92689752 238.25250342 -157.328125 243.98828125 C-161.68532654 248.61664178 -165.84810918 253.37923045 -169.91796875 258.26171875 C-175.57301397 265.03227113 -181.42045214 271.5483678 -187.48291016 277.95727539 C-191.75877494 282.50311395 -195.71451334 287.20058185 -199.609375 292.078125 C-201.83835117 294.76904191 -204.2557457 297.15400468 -206.765625 299.578125 C-208.86963044 301.7511897 -210.72582516 304.05820992 -212.61328125 306.421875 C-216.39466283 311.1275943 -220.4014243 315.53865023 -224.55078125 319.921875 C-228.54494745 324.14372082 -232.42368866 328.37447533 -236.05078125 332.921875 C-240.83074771 338.91025995 -246.08297482 344.41871913 -251.33203125 349.9921875 C-255.84565688 354.78662659 -260.15088643 359.73090434 -264.3515625 364.80078125 C-279.87107795 383.41538467 -279.87107795 383.41538467 -292.59375 384.73828125 C-305.2966135 385.1999328 -313.3176236 380.82309378 -322.55078125 372.421875 C-328.60418061 366.7105985 -334.37508 360.76993618 -339.765625 354.42578125 C-342.75825957 351.06643435 -345.99829366 347.95571723 -349.21875 344.81640625 C-351.55078125 342.421875 -351.55078125 342.421875 -353.5390625 339.93359375 C-355.7144076 337.21758036 -358.0593624 334.85082465 -360.55078125 332.421875 C-361.58041906 331.40595231 -362.60901385 330.38897173 -363.63671875 329.37109375 C-364.17119629 328.84177246 -364.70567383 328.31245117 -365.25634766 327.76708984 C-369.92738444 323.12884185 -374.47492015 318.47713894 -378.73828125 313.45703125 C-382.78926584 308.90840415 -387.21690226 304.69822462 -391.55078125 300.421875 C-394.63397196 297.37588719 -397.61442317 294.29063561 -400.48828125 291.046875 C-409.60401785 280.87467885 -418.90205142 270.89320824 -428.66870117 261.34082031 C-432.20009849 257.86502304 -435.4920116 254.24771079 -438.73168945 250.49926758 C-441.87376612 246.91103374 -445.15181837 243.4519445 -448.42578125 239.984375 C-449.12759521 239.23720215 -449.82940918 238.4900293 -450.55249023 237.72021484 C-454.15575283 233.89823183 -457.80753961 230.16920741 -461.61328125 226.546875 C-470.21030063 218.0320451 -475.53501441 208.09509844 -475.98828125 195.984375 C-475.73302544 186.46222355 -472.20885581 178.27144286 -465.55078125 171.421875 C-458.17779043 165.488501 -450.70636742 161.84938693 -441.17578125 161.984375 C-440.42554688 161.99194824 -439.6753125 161.99952148 -438.90234375 162.00732422 C-425.4590789 162.40700462 -415.30028776 171.19854444 -406.20458984 180.41162109 C-405.42448044 181.18968613 -404.64437103 181.96775116 -403.84062195 182.76939392 C-401.28618027 185.32084904 -398.74259434 187.88283012 -396.19921875 190.4453125 C-394.41339659 192.23419656 -392.6269793 194.02248669 -390.83999634 195.81021118 C-387.10521111 199.54958647 -383.37516101 203.29361418 -379.64941406 207.04199219 C-374.88764263 211.83263127 -370.11665433 216.61397908 -365.34265709 221.39243126 C-360.77085039 225.96940858 -356.2037347 230.5510558 -351.63671875 235.1328125 C-350.772104 235.99930798 -349.90748924 236.86580345 -349.01667404 237.75855637 C-346.55457462 240.22757689 -344.09587689 242.69993429 -341.63818359 245.17333984 C-340.92008011 245.89256119 -340.20197662 246.61178253 -339.46211243 247.35279846 C-335.52527156 251.32278761 -331.7554331 255.38500411 -328.1173563 259.63112831 C-325.53035968 262.58831547 -322.75100497 265.34527921 -319.9609375 268.109375 C-319.37154892 268.69734863 -318.78216034 269.28532227 -318.1749115 269.89111328 C-316.32340507 271.73709861 -314.46842308 273.57954392 -312.61328125 275.421875 C-311.34416752 276.6859635 -310.07528536 277.95028456 -308.80664062 279.21484375 C-305.72401805 282.28654224 -302.63827697 285.35507508 -299.55078125 288.421875 C-295.97387853 286.75399078 -293.9661748 284.91828433 -291.36328125 281.921875 C-290.57824219 281.02726562 -289.79320312 280.13265625 -288.984375 279.2109375 C-288.18128906 278.29054688 -287.37820313 277.37015625 -286.55078125 276.421875 C-285.01198302 274.71095744 -283.47039157 273.00254725 -281.92578125 271.296875 C-279.29825245 268.37891124 -276.68998332 265.44728066 -274.11328125 262.484375 C-270.46141072 258.29023135 -266.70811941 254.19093208 -262.9609375 250.08203125 C-260.38084989 247.23431705 -257.84876269 244.34943482 -255.328125 241.44921875 C-253.25718638 239.08698327 -251.15565277 236.75391647 -249.05078125 234.421875 C-245.79301632 230.81191927 -242.57365118 227.1729971 -239.3828125 223.50390625 C-236.45197175 220.17312135 -233.45849177 216.8990034 -230.46875 213.62109375 C-228.42558633 211.37364981 -228.42558633 211.37364981 -226.55078125 208.421875 C-225.89078125 208.421875 -225.23078125 208.421875 -224.55078125 208.421875 C-224.31488281 207.86628906 -224.07898438 207.31070313 -223.8359375 206.73828125 C-222.23800605 203.85811909 -220.24577625 201.75818424 -217.98828125 199.359375 C-214.48558128 195.57948295 -211.14927342 191.75953566 -207.92578125 187.734375 C-204.6891934 183.71987042 -201.28243204 180.1018861 -197.5859375 176.515625 C-194.40217231 173.24019671 -191.59528117 169.67484895 -188.73046875 166.12109375 C-186.72045539 163.63199119 -184.68966821 161.16831407 -182.61328125 158.734375 C-182.06800781 158.09113281 -181.52273438 157.44789063 -180.9609375 156.78515625 C-179.55078125 155.421875 -179.55078125 155.421875 -177.55078125 155.421875 C-177.30457031 154.85726562 -177.05835938 154.29265625 -176.8046875 153.7109375 C-175.33223871 151.02291572 -173.56773846 149.04870344 -171.48828125 146.796875 C-170.27978516 145.47623047 -170.27978516 145.47623047 -169.046875 144.12890625 C-168.22316406 143.23558594 -167.39945313 142.34226562 -166.55078125 141.421875 C-162.03208653 136.48463909 -157.60202787 131.52891431 -153.42578125 126.296875 C-148.91278515 120.70709387 -144.00939174 115.53757986 -139.06445312 110.33007812 C-134.76913254 105.78437704 -130.76040234 101.10057535 -126.86328125 96.20703125 C-122.95551351 91.50054747 -118.72905631 87.09063693 -114.546875 82.62890625 C-110.16961411 77.9579418 -105.99935235 73.12439959 -101.8515625 68.25 C-100.834932 67.05703886 -99.81799549 65.86433844 -98.80078125 64.671875 C-98.2917627 64.0747168 -97.78274414 63.47755859 -97.25830078 62.86230469 C-92.84114037 57.705946 -88.26819249 52.71032079 -83.6328125 47.75 C-81.53514685 45.6096735 -81.53514685 45.6096735 -80.55078125 43.421875 C-79.89078125 43.421875 -79.23078125 43.421875 -78.55078125 43.421875 C-78.22787109 42.61943359 -78.22787109 42.61943359 -77.8984375 41.80078125 C-76.05830758 38.55255192 -73.55248605 36.03751799 -70.98828125 33.359375 C-67.07320542 29.2050086 -63.31329265 25.00331163 -59.73828125 20.546875 C-56.24956746 16.20648605 -52.56914325 12.26859842 -48.55078125 8.421875 C-47.68453125 7.535 -46.81828125 6.648125 -45.92578125 5.734375 C-33.22104837 -6.63602281 -15.42285435 -9.54185782 0 0 Z " fill="#6329E9" transform="translate(754.55078125,311.578125)"/>
<path d="M0 0 C8.69118745 6.48552475 14.59081094 13.83337643 17.19921875 24.484375 C17.28171875 25.45375 17.36421875 26.423125 17.44921875 27.421875 C17.55234375 28.618125 17.65546875 29.814375 17.76171875 31.046875 C17.49896184 46.37436114 7.59968978 58.7288194 -2.4765625 69.16015625 C-4.95096855 71.73601519 -7.15406899 74.38927025 -9.23828125 77.296875 C-10.38296875 78.84375 -10.38296875 78.84375 -11.55078125 80.421875 C-12.21078125 80.421875 -12.87078125 80.421875 -13.55078125 80.421875 C-13.77378906 80.96328125 -13.99679687 81.5046875 -14.2265625 82.0625 C-15.97159477 85.17164304 -18.30398737 87.60032273 -20.73828125 90.171875 C-21.73111237 91.23768206 -22.72329919 92.30408967 -23.71484375 93.37109375 C-24.19856445 93.88978027 -24.68228516 94.4084668 -25.18066406 94.94287109 C-27.02188354 96.93041699 -28.8241481 98.94989659 -30.61328125 100.984375 C-31.40412109 101.88349609 -31.40412109 101.88349609 -32.2109375 102.80078125 C-33.73918095 104.59341935 -33.73918095 104.59341935 -35.55078125 107.421875 C-36.21078125 107.421875 -36.87078125 107.421875 -37.55078125 107.421875 C-37.78410156 107.97359375 -38.01742187 108.5253125 -38.2578125 109.09375 C-39.89097409 112.03442767 -41.94417332 114.21264751 -44.23828125 116.671875 C-47.21588265 119.88836705 -50.18161972 123.10761681 -53.05078125 126.421875 C-56.68023066 130.59916583 -60.41557145 134.67724739 -64.14453125 138.765625 C-66.70542226 141.59258261 -69.21523602 144.45884048 -71.71484375 147.33984375 C-73.91711104 149.83730857 -76.1721816 152.283152 -78.42578125 154.734375 C-81.69607598 158.31448712 -84.83104742 161.95103737 -87.86328125 165.734375 C-91.93461862 170.7857157 -96.29405537 175.49661392 -100.73999023 180.21435547 C-104.91118863 184.6655124 -108.76121941 189.28018593 -112.57421875 194.04296875 C-114.80922085 196.73292188 -117.22254769 199.12431675 -119.73828125 201.546875 C-122.00126698 203.88789473 -124.01026448 206.38501631 -126.05078125 208.921875 C-128.59572057 212.08585361 -131.12599115 215.10541045 -134.05078125 217.921875 C-136.81567204 220.59229344 -139.2144669 223.41783492 -141.61328125 226.421875 C-146.55280538 232.56450792 -151.92689752 238.25250342 -157.328125 243.98828125 C-161.68532654 248.61664178 -165.84810918 253.37923045 -169.91796875 258.26171875 C-175.57301397 265.03227113 -181.42045214 271.5483678 -187.48291016 277.95727539 C-191.75877494 282.50311395 -195.71451334 287.20058185 -199.609375 292.078125 C-201.82928046 294.75809135 -204.23206334 297.13537516 -206.73828125 299.54296875 C-209.01141465 301.89938506 -211.01077423 304.42402835 -213.05078125 306.984375 C-216.57191385 311.36918163 -220.13827494 314.94819982 -224.55078125 318.421875 C-224.55078125 316.771875 -224.55078125 315.121875 -224.55078125 313.421875 C-223.93203125 313.339375 -223.31328125 313.256875 -222.67578125 313.171875 C-220.41797291 312.6089253 -220.41797291 312.6089253 -219.30078125 310.609375 C-218.33456503 308.17666104 -218.33456503 308.17666104 -218.55078125 304.421875 C-217.76703125 304.48375 -216.98328125 304.545625 -216.17578125 304.609375 C-214.87640625 304.5165625 -214.87640625 304.5165625 -213.55078125 304.421875 C-212.89078125 303.431875 -212.23078125 302.441875 -211.55078125 301.421875 C-212.87078125 301.091875 -214.19078125 300.761875 -215.55078125 300.421875 C-215.55078125 299.761875 -215.55078125 299.101875 -215.55078125 298.421875 C-214.89078125 298.421875 -214.23078125 298.421875 -213.55078125 298.421875 C-212.8637057 295.93122612 -212.55078125 294.04301208 -212.55078125 291.421875 C-212.55078125 290.431875 -212.55078125 289.441875 -212.55078125 288.421875 C-211.89078125 288.421875 -211.23078125 288.421875 -210.55078125 288.421875 C-210.55078125 287.431875 -210.55078125 286.441875 -210.55078125 285.421875 C-208.57078125 284.761875 -206.59078125 284.101875 -204.55078125 283.421875 C-204.88078125 282.65875 -205.21078125 281.895625 -205.55078125 281.109375 C-206.55078125 278.421875 -206.55078125 278.421875 -206.55078125 275.421875 C-205.89078125 275.421875 -205.23078125 275.421875 -204.55078125 275.421875 C-204.55078125 273.771875 -204.55078125 272.121875 -204.55078125 270.421875 C-205.54078125 270.421875 -206.53078125 270.421875 -207.55078125 270.421875 C-208.21078125 270.091875 -208.87078125 269.761875 -209.55078125 269.421875 C-210.54078125 272.391875 -211.53078125 275.361875 -212.55078125 278.421875 C-213.54078125 278.421875 -214.53078125 278.421875 -215.55078125 278.421875 C-215.88078125 279.411875 -216.21078125 280.401875 -216.55078125 281.421875 C-218.20078125 281.091875 -219.85078125 280.761875 -221.55078125 280.421875 C-222.04578125 278.936875 -222.04578125 278.936875 -222.55078125 277.421875 C-221.83921875 276.5865625 -221.83921875 276.5865625 -221.11328125 275.734375 C-218.779045 272.27970536 -219.34501557 269.53718854 -219.55078125 265.421875 C-222.56109869 264.48763855 -223.41728393 264.37737589 -226.55078125 265.421875 C-227.65923044 262.09652743 -227.39532481 259.80004925 -226.55078125 256.421875 C-227.72640625 256.48375 -227.72640625 256.48375 -228.92578125 256.546875 C-231.55078125 256.421875 -231.55078125 256.421875 -233.55078125 254.421875 C-234.21078125 254.091875 -234.87078125 253.761875 -235.55078125 253.421875 C-235.24140625 252.720625 -234.93203125 252.019375 -234.61328125 251.296875 C-233.51306347 248.31981514 -233.06119899 245.54818366 -232.55078125 242.421875 C-231.14727248 236.80783991 -231.14727248 236.80783991 -228.42578125 235.046875 C-227.80703125 234.840625 -227.18828125 234.634375 -226.55078125 234.421875 C-226.05578125 236.896875 -226.05578125 236.896875 -225.55078125 239.421875 C-224.23078125 239.751875 -222.91078125 240.081875 -221.55078125 240.421875 C-221.22078125 241.741875 -220.89078125 243.061875 -220.55078125 244.421875 C-219.89078125 242.111875 -219.23078125 239.801875 -218.55078125 237.421875 C-215.91078125 237.091875 -213.27078125 236.761875 -210.55078125 236.421875 C-212.39266737 234.36917037 -212.39266737 234.36917037 -214.55078125 233.421875 C-214.55078125 232.761875 -214.55078125 232.101875 -214.55078125 231.421875 C-213.55078125 230.421875 -212.55078125 229.421875 -211.55078125 228.421875 C-211.22078125 227.431875 -210.89078125 226.441875 -210.55078125 225.421875 C-208.48828125 224.734375 -208.48828125 224.734375 -206.55078125 224.421875 C-206.55078125 222.441875 -206.55078125 220.461875 -206.55078125 218.421875 C-207.21078125 218.091875 -207.87078125 217.761875 -208.55078125 217.421875 C-208.22078125 216.431875 -207.89078125 215.441875 -207.55078125 214.421875 C-208.78828125 213.865 -208.78828125 213.865 -210.05078125 213.296875 C-211.28828125 212.36875 -211.28828125 212.36875 -212.55078125 211.421875 C-212.86328125 208.234375 -212.86328125 208.234375 -212.55078125 205.421875 C-214.53078125 207.401875 -214.53078125 207.401875 -216.55078125 209.421875 C-216.05578125 210.411875 -216.05578125 210.411875 -215.55078125 211.421875 C-216.54078125 211.751875 -217.53078125 212.081875 -218.55078125 212.421875 C-218.88078125 214.071875 -219.21078125 215.721875 -219.55078125 217.421875 C-220.21078125 217.421875 -220.87078125 217.421875 -221.55078125 217.421875 C-222.54078125 214.946875 -222.54078125 214.946875 -223.55078125 212.421875 C-224.54078125 213.411875 -224.54078125 213.411875 -225.55078125 214.421875 C-228.17578125 215.046875 -228.17578125 215.046875 -230.55078125 215.421875 C-229.34696677 212.92825929 -228.09649403 210.74044417 -226.55078125 208.421875 C-225.89078125 208.421875 -225.23078125 208.421875 -224.55078125 208.421875 C-224.31488281 207.86628906 -224.07898438 207.31070313 -223.8359375 206.73828125 C-222.23800605 203.85811909 -220.24577625 201.75818424 -217.98828125 199.359375 C-214.48558128 195.57948295 -211.14927342 191.75953566 -207.92578125 187.734375 C-204.6891934 183.71987042 -201.28243204 180.1018861 -197.5859375 176.515625 C-194.40217231 173.24019671 -191.59528117 169.67484895 -188.73046875 166.12109375 C-186.72045539 163.63199119 -184.68966821 161.16831407 -182.61328125 158.734375 C-181.79537109 157.76951172 -181.79537109 157.76951172 -180.9609375 156.78515625 C-179.55078125 155.421875 -179.55078125 155.421875 -177.55078125 155.421875 C-177.30457031 154.85726562 -177.05835938 154.29265625 -176.8046875 153.7109375 C-175.33223871 151.02291572 -173.56773846 149.04870344 -171.48828125 146.796875 C-170.27978516 145.47623047 -170.27978516 145.47623047 -169.046875 144.12890625 C-168.22316406 143.23558594 -167.39945313 142.34226562 -166.55078125 141.421875 C-162.03208653 136.48463909 -157.60202787 131.52891431 -153.42578125 126.296875 C-148.91278515 120.70709387 -144.00939174 115.53757986 -139.06445312 110.33007812 C-134.76913254 105.78437704 -130.76040234 101.10057535 -126.86328125 96.20703125 C-122.95551351 91.50054747 -118.72905631 87.09063693 -114.546875 82.62890625 C-110.16961411 77.9579418 -105.99935235 73.12439959 -101.8515625 68.25 C-100.834932 67.05703886 -99.81799549 65.86433844 -98.80078125 64.671875 C-98.2917627 64.0747168 -97.78274414 63.47755859 -97.25830078 62.86230469 C-92.84114037 57.705946 -88.26819249 52.71032079 -83.6328125 47.75 C-81.53514685 45.6096735 -81.53514685 45.6096735 -80.55078125 43.421875 C-79.89078125 43.421875 -79.23078125 43.421875 -78.55078125 43.421875 C-78.22787109 42.61943359 -78.22787109 42.61943359 -77.8984375 41.80078125 C-76.05830758 38.55255192 -73.55248605 36.03751799 -70.98828125 33.359375 C-67.07320542 29.2050086 -63.31329265 25.00331163 -59.73828125 20.546875 C-56.24956746 16.20648605 -52.56914325 12.26859842 -48.55078125 8.421875 C-47.68453125 7.535 -46.81828125 6.648125 -45.92578125 5.734375 C-33.22104837 -6.63602281 -15.42285435 -9.54185782 0 0 Z " fill="#A640D6" transform="translate(754.55078125,311.578125)"/>
<path d="M0 0 C0.99 0.495 0.99 0.495 2 1 C1.8453125 2.3921875 1.8453125 2.3921875 1.6875 3.8125 C1.790625 4.864375 1.89375 5.91625 2 7 C4.39056942 8.9354148 4.39056942 8.9354148 7 10 C6.34 10.33 5.68 10.66 5 11 C5 11.66 5 12.32 5 13 C5.99 13.33 6.98 13.66 8 14 C7.8125 16.8125 7.8125 16.8125 7 20 C4.5 21.625 4.5 21.625 2 23 C1.12177688 25.08533633 1.12177688 25.08533633 1 27 C0.34 27 -0.32 27 -1 27 C-1 27.66 -1 28.32 -1 29 C0.32 29 1.64 29 3 29 C3 29.99 3 30.98 3 32 C0.10765685 32.82638376 -1.88742431 33 -5 33 C-5.185625 34.7015625 -5.185625 34.7015625 -5.375 36.4375 C-5.58125 37.613125 -5.7875 38.78875 -6 40 C-6.99 40.495 -6.99 40.495 -8 41 C-8 39.35 -8 37.7 -8 36 C-9.65 35.67 -11.3 35.34 -13 35 C-13.495 33.02 -13.495 33.02 -14 31 C-17.15040365 32.63252302 -17.15040365 32.63252302 -17.625 35.1875 C-17.810625 36.5796875 -17.810625 36.5796875 -18 38 C-19.08542714 45.73366834 -19.08542714 45.73366834 -20 49 C-19.34 49.33 -18.68 49.66 -18 50 C-18 50.66 -18 51.32 -18 52 C-17.01 51.67 -16.02 51.34 -15 51 C-13 52 -13 52 -12.3125 53.8125 C-11.97311462 56.18819767 -12.27143659 57.73335829 -13 60 C-10.69 59.34 -8.38 58.68 -6 58 C-4.65116279 67.94767442 -4.65116279 67.94767442 -5 71 C-6.5 72.6875 -6.5 72.6875 -8 74 C-8 74.66 -8 75.32 -8 76 C-6.35 76 -4.7 76 -3 76 C-2.67 75.34 -2.34 74.68 -2 74 C-1.01 74 -0.02 74 1 74 C1.185625 72.9171875 1.185625 72.9171875 1.375 71.8125 C1.9904931 69.04278106 2.88444374 66.6029646 4 64 C7 64 7 64 8.75 65.25 C10 67 10 67 9.8125 69.0625 C9 71 9 71 7 73 C7.66 73.66 8.32 74.32 9 75 C9.625 77.125 9.625 77.125 10 79 C6.535 79.99 6.535 79.99 3 81 C3 81.99 3 82.98 3 84 C2.34 84 1.68 84 1 84 C1.391875 84.53625 1.78375 85.0725 2.1875 85.625 C3 88 3 88 1.6875 91.1875 C0 94 0 94 -1 95 C0.32 95.33 1.64 95.66 3 96 C1.25 99.875 1.25 99.875 -1 101 C-3.125 100.5625 -3.125 100.5625 -5 100 C-4.67 101.98 -4.34 103.96 -4 106 C-5.65 107.32 -7.3 108.64 -9 110 C-9.66 109.67 -10.32 109.34 -11 109 C-10.855625 110.010625 -10.71125 111.02125 -10.5625 112.0625 C-11.10327463 116.92947165 -12.40476611 117.86992885 -15.8984375 121.015625 C-18.20499935 123.19356816 -20.09635189 125.51101849 -22.0625 128 C-27.00318188 134.14407266 -32.37859661 139.83333831 -37.78125 145.5703125 C-42.29487563 150.36475159 -46.60010518 155.30902934 -50.80078125 160.37890625 C-66.3202967 178.99350967 -66.3202967 178.99350967 -79.04296875 180.31640625 C-91.74583225 180.7780578 -99.76684235 176.40121878 -109 168 C-115.05222196 162.28983436 -120.82895921 156.35358014 -126.2109375 150.00390625 C-129.22297268 146.63016379 -132.5062262 143.52740059 -135.765625 140.39453125 C-137.94175568 138.06241918 -139.47367932 135.78999527 -141 133 C-138.625 133.1875 -138.625 133.1875 -136 134 C-135.29289322 135.64991582 -134.63437344 137.3207762 -134 139 C-131.31610516 142.25344229 -129.03868652 144.65377116 -125 146 C-125 146.66 -125 147.32 -125 148 C-124.01 148 -123.02 148 -122 148 C-122 146.68 -122 145.36 -122 144 C-122.66 144 -123.32 144 -124 144 C-122.01239669 137.11983471 -122.01239669 137.11983471 -119 135 C-116.3125 134.3125 -116.3125 134.3125 -114 134 C-114 133.34 -114 132.68 -114 132 C-112.35 131.67 -110.7 131.34 -109 131 C-108.67 129.35 -108.34 127.7 -108 126 C-105.03 125.01 -105.03 125.01 -102 124 C-102.01160156 123.38511719 -102.02320313 122.77023437 -102.03515625 122.13671875 C-102.04417969 121.32847656 -102.05320312 120.52023437 -102.0625 119.6875 C-102.07410156 118.88699219 -102.08570313 118.08648438 -102.09765625 117.26171875 C-102 115 -102 115 -101 112 C-100.34 112 -99.68 112 -99 112 C-98.67 110.02 -98.34 108.04 -98 106 C-97.01 106.33 -96.02 106.66 -95 107 C-95 106.01 -95 105.02 -95 104 C-94.01 104.495 -94.01 104.495 -93 105 C-92.67 104.67 -92.34 104.34 -92 104 C-95 102.66666667 -95 102.66666667 -98 104 C-98.33 104.66 -98.66 105.32 -99 106 C-99.66 106 -100.32 106 -101 106 C-101.72713085 101.90988897 -102 98.14906902 -102 94 C-102.99 94.495 -102.99 94.495 -104 95 C-102.43754389 91.16488047 -99.89634216 88.89634216 -97 86 C-95.70480005 83.83379456 -95.70480005 83.83379456 -95 82 C-94.01 82 -93.02 82 -92 82 C-93.50420865 78.9915827 -95.98049924 76.89834056 -98.34765625 74.5546875 C-98.87894638 74.02481232 -99.41023651 73.49493713 -99.95762634 72.94900513 C-101.65692164 71.25531229 -103.35965932 69.56512755 -105.0625 67.875 C-106.21442093 66.72809375 -107.36611651 65.58096113 -108.51757812 64.43359375 C-111.34244289 61.61976128 -114.17040007 58.80907041 -117 56 C-116.67 55.34 -116.34 54.68 -116 54 C-106.1 63.9 -96.2 73.8 -86 84 C-82.10670349 82.05335174 -80.59283249 80.70067419 -77.8125 77.5 C-77.02746094 76.60539063 -76.24242187 75.71078125 -75.43359375 74.7890625 C-74.63050781 73.86867188 -73.82742188 72.94828125 -73 72 C-71.46120177 70.28908244 -69.91961032 68.58067225 -68.375 66.875 C-65.7474712 63.95703624 -63.13920207 61.02540566 -60.5625 58.0625 C-56.91062947 53.86835635 -53.15733816 49.76905708 -49.41015625 45.66015625 C-46.83006864 42.81244205 -44.29798144 39.92755982 -41.77734375 37.02734375 C-39.70640513 34.66510827 -37.60487152 32.33204147 -35.5 30 C-32.75207508 26.95348901 -30.01628217 23.89827347 -27.3125 20.8125 C-26.47138672 19.85923828 -26.47138672 19.85923828 -25.61328125 18.88671875 C-24.53514309 17.62584531 -23.49032927 16.33572479 -22.48046875 15.01953125 C-18.99637687 10.56099679 -16.60405692 9.00873025 -11 8 C-11.99 7.505 -11.99 7.505 -13 7 C-11.02 7.495 -11.02 7.495 -9 8 C-8.67 9.65 -8.34 11.3 -8 13 C-7.34 13 -6.68 13 -6 13 C-6.33 12.01 -6.66 11.02 -7 10 C-5 7 -5 7 -2.9375 4.4375 C-1.00018701 2.17242641 -1.00018701 2.17242641 0 0 Z " fill="#8D34DF" transform="translate(541,516)"/>
<path d="M0 0 C8.69118745 6.48552475 14.59081094 13.83337643 17.19921875 24.484375 C17.28171875 25.45375 17.36421875 26.423125 17.44921875 27.421875 C17.55234375 28.618125 17.65546875 29.814375 17.76171875 31.046875 C17.49896184 46.37436114 7.59968978 58.7288194 -2.4765625 69.16015625 C-4.95096855 71.73601519 -7.15406899 74.38927025 -9.23828125 77.296875 C-10.38296875 78.84375 -10.38296875 78.84375 -11.55078125 80.421875 C-12.21078125 80.421875 -12.87078125 80.421875 -13.55078125 80.421875 C-13.77378906 80.96328125 -13.99679687 81.5046875 -14.2265625 82.0625 C-15.97159477 85.17164304 -18.30398737 87.60032273 -20.73828125 90.171875 C-21.73111237 91.23768206 -22.72329919 92.30408967 -23.71484375 93.37109375 C-24.19856445 93.88978027 -24.68228516 94.4084668 -25.18066406 94.94287109 C-27.02188354 96.93041699 -28.8241481 98.94989659 -30.61328125 100.984375 C-31.14050781 101.58378906 -31.66773438 102.18320312 -32.2109375 102.80078125 C-33.73918095 104.59341935 -33.73918095 104.59341935 -35.55078125 107.421875 C-36.21078125 107.421875 -36.87078125 107.421875 -37.55078125 107.421875 C-37.78410156 107.97359375 -38.01742187 108.5253125 -38.2578125 109.09375 C-39.89097409 112.03442767 -41.94417332 114.21264751 -44.23828125 116.671875 C-47.21588265 119.88836705 -50.18161972 123.10761681 -53.05078125 126.421875 C-56.68023066 130.59916583 -60.41557145 134.67724739 -64.14453125 138.765625 C-66.70542226 141.59258261 -69.21523602 144.45884048 -71.71484375 147.33984375 C-73.91711104 149.83730857 -76.1721816 152.283152 -78.42578125 154.734375 C-81.69607598 158.31448712 -84.83104742 161.95103737 -87.86328125 165.734375 C-93.40937852 172.61712161 -99.48501897 178.99985466 -105.55078125 185.421875 C-106.21078125 184.101875 -106.87078125 182.781875 -107.55078125 181.421875 C-106.74640625 181.195 -105.94203125 180.968125 -105.11328125 180.734375 C-104.26765625 180.30125 -103.42203125 179.868125 -102.55078125 179.421875 C-101.65691961 176.87412194 -101.65691961 176.87412194 -101.55078125 174.421875 C-100.89078125 174.421875 -100.23078125 174.421875 -99.55078125 174.421875 C-99.77765625 173.761875 -100.00453125 173.101875 -100.23828125 172.421875 C-100.65763795 168.39605072 -99.76628803 164.84511291 -97.55078125 161.421875 C-95.5 160.75 -95.5 160.75 -93.55078125 160.421875 C-92.27521307 159.36962833 -92.27521307 159.36962833 -92.42578125 156.984375 C-92.37771449 154.43208878 -92.37771449 154.43208878 -93.55078125 152.421875 C-92.61328125 150.296875 -92.61328125 150.296875 -91.55078125 148.421875 C-92.21078125 148.091875 -92.87078125 147.761875 -93.55078125 147.421875 C-92.56078125 146.431875 -91.57078125 145.441875 -90.55078125 144.421875 C-90.22078125 146.071875 -89.89078125 147.721875 -89.55078125 149.421875 C-88.59171875 149.6075 -88.59171875 149.6075 -87.61328125 149.796875 C-86.93265625 150.003125 -86.25203125 150.209375 -85.55078125 150.421875 C-85.22078125 151.081875 -84.89078125 151.741875 -84.55078125 152.421875 C-83.56078125 151.761875 -82.57078125 151.101875 -81.55078125 150.421875 C-81.55078125 149.431875 -81.55078125 148.441875 -81.55078125 147.421875 C-82.21078125 147.091875 -82.87078125 146.761875 -83.55078125 146.421875 C-83.22078125 145.101875 -82.89078125 143.781875 -82.55078125 142.421875 C-79.58078125 143.411875 -79.58078125 143.411875 -76.55078125 144.421875 C-76.27234375 142.50375 -76.27234375 142.50375 -75.98828125 140.546875 C-75.88386719 139.82757813 -75.77945313 139.10828125 -75.671875 138.3671875 C-75.38235155 136.34046833 -75.38235155 136.34046833 -76.55078125 134.421875 C-78.86078125 134.421875 -81.17078125 134.421875 -83.55078125 134.421875 C-83.53015625 133.514375 -83.50953125 132.606875 -83.48828125 131.671875 C-83.53997199 128.98395642 -83.62418979 126.92367194 -84.55078125 124.421875 C-85.21078125 124.091875 -85.87078125 123.761875 -86.55078125 123.421875 C-86.22078125 123.091875 -85.89078125 122.761875 -85.55078125 122.421875 C-85.51014293 120.75570385 -85.50806025 119.08799405 -85.55078125 117.421875 C-84.56078125 117.916875 -84.56078125 117.916875 -83.55078125 118.421875 C-83.27234375 117.4628125 -83.27234375 117.4628125 -82.98828125 116.484375 C-81.55078125 114.421875 -81.55078125 114.421875 -77.92578125 113.671875 C-76.81203125 113.589375 -75.69828125 113.506875 -74.55078125 113.421875 C-74.55078125 112.761875 -74.55078125 112.101875 -74.55078125 111.421875 C-75.54078125 111.091875 -76.53078125 110.761875 -77.55078125 110.421875 C-77.05578125 108.936875 -77.05578125 108.936875 -76.55078125 107.421875 C-75.56078125 107.751875 -74.57078125 108.081875 -73.55078125 108.421875 C-72.56078125 108.091875 -71.57078125 107.761875 -70.55078125 107.421875 C-69.56078125 107.751875 -68.57078125 108.081875 -67.55078125 108.421875 C-67.92203125 107.37 -68.29328125 106.318125 -68.67578125 105.234375 C-69.59354371 101.23555286 -69.46462734 99.93059284 -67.55078125 96.421875 C-68.21078125 96.421875 -68.87078125 96.421875 -69.55078125 96.421875 C-69.55078125 97.081875 -69.55078125 97.741875 -69.55078125 98.421875 C-71.53078125 99.411875 -71.53078125 99.411875 -73.55078125 100.421875 C-73.55078125 99.761875 -73.55078125 99.101875 -73.55078125 98.421875 C-74.54078125 98.421875 -75.53078125 98.421875 -76.55078125 98.421875 C-77.04578125 94.956875 -77.04578125 94.956875 -77.55078125 91.421875 C-80.02578125 92.411875 -80.02578125 92.411875 -82.55078125 93.421875 C-83.78217525 90.95908699 -83.62237321 89.1423695 -83.55078125 86.421875 C-82.89078125 86.421875 -82.23078125 86.421875 -81.55078125 86.421875 C-81.25515758 81.10017006 -81.25515758 81.10017006 -83.55078125 76.421875 C-83.22078125 76.091875 -82.89078125 75.761875 -82.55078125 75.421875 C-83.87078125 74.761875 -85.19078125 74.101875 -86.55078125 73.421875 C-86.2941588 71.98177019 -86.01987304 70.5448063 -85.73828125 69.109375 C-85.58746094 68.30886719 -85.43664062 67.50835937 -85.28125 66.68359375 C-84.46864718 64.16756685 -83.44969358 63.19592734 -81.55078125 61.421875 C-81.55078125 60.761875 -81.55078125 60.101875 -81.55078125 59.421875 C-82.21078125 58.761875 -82.87078125 58.101875 -83.55078125 57.421875 C-84.54078125 57.421875 -85.53078125 57.421875 -86.55078125 57.421875 C-85.89078125 59.401875 -85.23078125 61.381875 -84.55078125 63.421875 C-86.03578125 63.916875 -86.03578125 63.916875 -87.55078125 64.421875 C-87.55078125 65.081875 -87.55078125 65.741875 -87.55078125 66.421875 C-88.21078125 66.421875 -88.87078125 66.421875 -89.55078125 66.421875 C-89.88078125 65.101875 -90.21078125 63.781875 -90.55078125 62.421875 C-90.55078125 64.071875 -90.55078125 65.721875 -90.55078125 67.421875 C-92.03578125 67.916875 -92.03578125 67.916875 -93.55078125 68.421875 C-94.75960221 70.42203966 -94.75960221 70.42203966 -95.55078125 72.421875 C-96.21078125 72.421875 -96.87078125 72.421875 -97.55078125 72.421875 C-97.88078125 73.081875 -98.21078125 73.741875 -98.55078125 74.421875 C-99.21078125 74.421875 -99.87078125 74.421875 -100.55078125 74.421875 C-100.55078125 73.761875 -100.55078125 73.101875 -100.55078125 72.421875 C-104.17872123 74.28753988 -104.17872123 74.28753988 -106.55078125 77.421875 C-106.22078125 78.411875 -105.89078125 79.401875 -105.55078125 80.421875 C-106.49953125 80.669375 -107.44828125 80.916875 -108.42578125 81.171875 C-111.98638093 82.59611487 -112.06820784 83.13903387 -113.55078125 86.421875 C-115.67578125 87.171875 -115.67578125 87.171875 -117.55078125 87.421875 C-115.90662576 83.33609937 -112.98285517 80.48734989 -109.98828125 77.359375 C-106.20675527 73.34351046 -102.55719943 69.29887473 -99.11328125 64.984375 C-94.92363763 59.75310728 -90.41126095 54.87648385 -85.80297852 50.01586914 C-82.83352147 46.97190704 -82.83352147 46.97190704 -80.55078125 43.421875 C-79.89078125 43.421875 -79.23078125 43.421875 -78.55078125 43.421875 C-78.33550781 42.88691406 -78.12023437 42.35195313 -77.8984375 41.80078125 C-76.05830758 38.55255192 -73.55248605 36.03751799 -70.98828125 33.359375 C-67.07320542 29.2050086 -63.31329265 25.00331163 -59.73828125 20.546875 C-56.24956746 16.20648605 -52.56914325 12.26859842 -48.55078125 8.421875 C-47.68453125 7.535 -46.81828125 6.648125 -45.92578125 5.734375 C-33.22104837 -6.63602281 -15.42285435 -9.54185782 0 0 Z M-80.55078125 77.421875 C-79.55078125 79.421875 -79.55078125 79.421875 -79.55078125 79.421875 Z " fill="#C554CE" transform="translate(754.55078125,311.578125)"/>
<path d="M0 0 C1 3 1 3 -0.3125 5.6875 C-0.869375 6.450625 -1.42625 7.21375 -2 8 C-2.66 8 -3.32 8 -4 8 C-3.95875 8.7425 -3.9175 9.485 -3.875 10.25 C-4.00398134 13.08758952 -4.57051222 14.58773938 -6 17 C-4.35 17.33 -2.7 17.66 -1 18 C-1.495 19.485 -1.495 19.485 -2 21 C-1.01 21.99 -1.01 21.99 0 23 C-0.3828104 27.0577902 -1.15472756 31.01514422 -2 35 C-1.34 35 -0.68 35 0 35 C0.99 35 1.98 35 3 35 C3.495 38.465 3.495 38.465 4 42 C7.01031744 42.93423645 7.86650268 43.04449911 11 42 C11 41.34 11 40.68 11 40 C11.66 40 12.32 40 13 40 C12.7215625 41.299375 12.7215625 41.299375 12.4375 42.625 C11.99332067 46.05152628 12.28045508 48.64212371 13 52 C12.21625 51.979375 11.4325 51.95875 10.625 51.9375 C8.01885039 51.81315937 8.01885039 51.81315937 6 53 C5.34 52.67 4.68 52.34 4 52 C4 52.66 4 53.32 4 54 C4.66 54.33 5.32 54.66 6 55 C6 55.66 6 56.32 6 57 C1.25 59 1.25 59 -1 59 C-3.33017798 63.34966556 -4.33585518 65.63258962 -3.125 70.5625 C-2.42213865 72.71013189 -1.71458637 74.85624089 -1 77 C0.98 77 2.96 77 5 77 C6.0257259 81.41062136 6.03684712 83.92630576 4 88 C2.02 87.34 0.04 86.68 -2 86 C-1.41196203 89.02419525 -0.77321882 92.01758453 0 95 C-1.65 95.66 -3.3 96.32 -5 97 C-5 96.01 -5 95.02 -5 94 C-6.65 93.67 -8.3 93.34 -10 93 C-10.33 91.68 -10.66 90.36 -11 89 C-11 89.99 -11 90.98 -11 92 C-11.2784375 93.2375 -11.2784375 93.2375 -11.5625 94.5 C-12.22461637 97.11786478 -12.22461637 97.11786478 -11 100 C-10.96125079 101.66621616 -10.9549714 103.33394172 -11 105 C-11.99 105 -12.98 105 -14 105 C-14.99 105.33 -15.98 105.66 -17 106 C-17.80853712 108.00199377 -17.80853712 108.00199377 -18.1875 110.375 C-18.34605469 111.16648437 -18.50460937 111.95796875 -18.66796875 112.7734375 C-19.07374595 115.11933445 -19.07374595 115.11933445 -19 118 C-19.66 118 -20.32 118 -21 118 C-20.773125 118.598125 -20.54625 119.19625 -20.3125 119.8125 C-20 122 -20 122 -21.1875 123.75 C-23 125 -23 125 -27 125 C-26.69320312 125.83144531 -26.38640625 126.66289062 -26.0703125 127.51953125 C-25.99020436 131.48488409 -26.34005919 131.88342194 -28.8671875 134.69921875 C-30.18698626 136.04466909 -31.52402003 137.37336207 -32.875 138.6875 C-34.27093625 140.10410834 -35.66417008 141.52338475 -37.0546875 142.9453125 C-37.73499023 143.6352832 -38.41529297 144.32525391 -39.11621094 145.03613281 C-41.57727523 147.60181467 -43.78748798 150.27951449 -46 153.0625 C-48.9152656 156.72023025 -51.93344049 160.05902895 -55.30078125 163.30078125 C-57.86443068 165.86443068 -60.18282575 168.62861267 -62.51953125 171.3984375 C-64 173 -64 173 -66 174 C-66 172.68 -66 171.36 -66 170 C-65.195625 169.525625 -64.39125 169.05125 -63.5625 168.5625 C-60.74523291 167.23520082 -60.74523291 167.23520082 -60.1875 164.3125 C-60.125625 163.549375 -60.06375 162.78625 -60 162 C-59.34 162 -58.68 162 -58 162 C-57.92572162 158.65747276 -57.93453047 156.1964086 -59 153 C-57.25 151.4375 -57.25 151.4375 -55 150 C-52.875 150.3125 -52.875 150.3125 -51 151 C-50.34 151 -49.68 151 -49 151 C-49.20625 150.236875 -49.4125 149.47375 -49.625 148.6875 C-50 146 -50 146 -48 143 C-44.875 142.3125 -44.875 142.3125 -42 142 C-42.66 141.01 -43.32 140.02 -44 139 C-44.99 139.99 -44.99 139.99 -46 141 C-47.65 140.34 -49.3 139.68 -51 139 C-50.34 137.35 -49.68 135.7 -49 134 C-48.34 134 -47.68 134 -47 134 C-46.67 133.34 -46.34 132.68 -46 132 C-45.67 131.34 -45.34 130.68 -45 130 C-45.66 129.67 -46.32 129.34 -47 129 C-46.773125 128.29875 -46.54625 127.5975 -46.3125 126.875 C-45.90364241 123.11351015 -47.22227421 121.27101546 -49 118 C-49 117.01 -49 116.02 -49 115 C-49.31088368 113.32900023 -49.64080332 111.66128463 -50 110 C-50.66 110 -51.32 110 -52 110 C-52 109.34 -52 108.68 -52 108 C-53.65 107.67 -55.3 107.34 -57 107 C-57.33 107.66 -57.66 108.32 -58 109 C-58.99 108.67 -59.98 108.34 -61 108 C-60.67 106.02 -60.34 104.04 -60 102 C-59.01 102.33 -58.02 102.66 -57 103 C-57.33 102.01 -57.66 101.02 -58 100 C-57.0625 97.8125 -57.0625 97.8125 -56 96 C-57.485 95.01 -57.485 95.01 -59 94 C-58.67 95.32 -58.34 96.64 -58 98 C-60.97 98.495 -60.97 98.495 -64 99 C-64.33333333 97.66666667 -64.66666667 96.33333333 -65 95 C-65.2784375 94.13375 -65.2784375 94.13375 -65.5625 93.25 C-66.09075815 90.5332438 -66.0086105 87.91054825 -65.97265625 85.15234375 C-66.03762579 80.03831268 -66.90881016 74.98829641 -68 70 C-70.46278801 70 -71.85224119 70.85452863 -74 72 C-69.93670438 66.32003344 -65.53231688 61.20957384 -60.6875 56.1875 C-56.28320444 51.56925233 -52.02780389 46.93903314 -48.0625 41.9375 C-44.51358181 37.49632071 -40.77413358 33.16475371 -36 30 C-35.01 30 -34.02 30 -33 30 C-32.87625 29.38125 -32.7525 28.7625 -32.625 28.125 C-32 26 -32 26 -30 24 C-27.875 23.375 -27.875 23.375 -26 23 C-26.495 21.515 -26.495 21.515 -27 20 C-25.1875 18 -25.1875 18 -23 16 C-22.01 16 -21.02 16 -20 16 C-20 16.66 -20 17.32 -20 18 C-19.34 18 -18.68 18 -18 18 C-17.505 16.515 -17.505 16.515 -17 15 C-16.01 14.67 -15.02 14.34 -14 14 C-14 13.01 -14 12.02 -14 11 C-13.01 10.67 -12.02 10.34 -11 10 C-11 8.02 -11 6.04 -11 4 C-9.97895449 4.97850195 -8.9793879 5.97980427 -8 7 C-8 7.33 -8 7.66 -8 8 C-6.68 7.01 -5.36 6.02 -4 5 C-4.99 4.505 -4.99 4.505 -6 4 C-6 3.01 -6 2.02 -6 1 C-3 0 -3 0 0 0 Z M-47 130 C-45 131 -45 131 -45 131 Z " fill="#B64AD1" transform="translate(674,368)"/>
<path d="M0 0 C8.69118745 6.48552475 14.59081094 13.83337643 17.19921875 24.484375 C17.28171875 25.45375 17.36421875 26.423125 17.44921875 27.421875 C17.55234375 28.618125 17.65546875 29.814375 17.76171875 31.046875 C17.49896184 46.37436114 7.59968978 58.7288194 -2.4765625 69.16015625 C-4.95096855 71.73601519 -7.15406899 74.38927025 -9.23828125 77.296875 C-10.00140625 78.328125 -10.76453125 79.359375 -11.55078125 80.421875 C-12.21078125 80.421875 -12.87078125 80.421875 -13.55078125 80.421875 C-13.77378906 80.96328125 -13.99679687 81.5046875 -14.2265625 82.0625 C-15.97152695 85.1715222 -18.30361553 87.60076996 -20.73828125 90.171875 C-21.73258304 91.23622099 -22.72607188 92.30132701 -23.71875 93.3671875 C-24.20263184 93.88571289 -24.68651367 94.40423828 -25.18505859 94.93847656 C-27.56882329 97.52763536 -29.84385289 100.20916489 -32.11328125 102.8984375 C-33.55078125 104.421875 -33.55078125 104.421875 -36.55078125 106.421875 C-36.55078125 104.771875 -36.55078125 103.121875 -36.55078125 101.421875 C-34.57078125 100.926875 -34.57078125 100.926875 -32.55078125 100.421875 C-33.21078125 100.091875 -33.87078125 99.761875 -34.55078125 99.421875 C-34.55078125 98.431875 -34.55078125 97.441875 -34.55078125 96.421875 C-33.56078125 96.421875 -32.57078125 96.421875 -31.55078125 96.421875 C-32.21078125 95.431875 -32.87078125 94.441875 -33.55078125 93.421875 C-32.89078125 92.431875 -32.23078125 91.441875 -31.55078125 90.421875 C-30.56078125 90.421875 -29.57078125 90.421875 -28.55078125 90.421875 C-28.92203125 89.7 -29.29328125 88.978125 -29.67578125 88.234375 C-30.77288599 84.70796691 -29.90242412 83.76122797 -28.55078125 80.421875 C-28.87994013 76.86766541 -28.87994013 76.86766541 -29.55078125 73.421875 C-29.55078125 69.421875 -29.55078125 65.421875 -29.55078125 61.421875 C-28.89078125 61.421875 -28.23078125 61.421875 -27.55078125 61.421875 C-27.55078125 60.761875 -27.55078125 60.101875 -27.55078125 59.421875 C-28.21078125 59.421875 -28.87078125 59.421875 -29.55078125 59.421875 C-29.53015625 58.184375 -29.50953125 56.946875 -29.48828125 55.671875 C-29.48311444 52.7577925 -29.62062567 50.21234173 -30.55078125 47.421875 C-31.21078125 47.421875 -31.87078125 47.421875 -32.55078125 47.421875 C-31.89078125 45.771875 -31.23078125 44.121875 -30.55078125 42.421875 C-33.02578125 42.916875 -33.02578125 42.916875 -35.55078125 43.421875 C-35.34839844 42.70128906 -35.14601563 41.98070312 -34.9375 41.23828125 C-34.48447429 37.93897281 -35.04050505 36.38353119 -36.36328125 33.359375 C-36.89888672 32.10447266 -36.89888672 32.10447266 -37.4453125 30.82421875 C-37.81011719 30.03144531 -38.17492187 29.23867188 -38.55078125 28.421875 C-38.87175781 27.67550781 -39.19273437 26.92914063 -39.5234375 26.16015625 C-40.45870581 24.12261659 -40.45870581 24.12261659 -43.17578125 23.671875 C-43.95953125 23.589375 -44.74328125 23.506875 -45.55078125 23.421875 C-45.69515625 22.82375 -45.83953125 22.225625 -45.98828125 21.609375 C-46.43802515 19.86037096 -46.97970466 18.13510477 -47.55078125 16.421875 C-47.55078125 15.101875 -47.55078125 13.781875 -47.55078125 12.421875 C-50.04439696 13.62568948 -52.23221208 14.87616222 -54.55078125 16.421875 C-50.19945947 6.96247983 -41.82419214 0.31545207 -32.23828125 -3.390625 C-20.92956243 -7.0324158 -10.34956861 -6.40310217 0 0 Z " fill="#DA65CA" transform="translate(754.55078125,311.578125)"/>
<path d="M0 0 C6.92810724 5.66574049 13.14204142 12.03033639 19.4375 18.375 C20.56161467 19.50413955 21.68596174 20.63304778 22.81054688 21.76171875 C25.54305235 24.50515188 28.27239009 27.25169985 31 30 C34.08672549 28.63609804 35.18078756 27.78212782 37.4375 25.0625 C39.87965744 22.14382404 41.66340296 20.71107541 45 19 C46.0828125 18.4121875 46.0828125 18.4121875 47.1875 17.8125 C49 17 49 17 51 17 C51.66 16.34 52.32 15.68 53 15 C53.495 17.475 53.495 17.475 54 20 C51.66785852 21.20628008 49.50357861 22.1654738 47 23 C48.175625 23.12375 48.175625 23.12375 49.375 23.25 C52 24 52 24 53.1875 25.9375 C53.5896875 26.9584375 53.5896875 26.9584375 54 28 C54.99 28.99 54.99 28.99 56 30 C55.34 30 54.68 30 54 30 C53.505 31.485 53.505 31.485 53 33 C52.01 33.495 52.01 33.495 51 34 C51 35.32 51 36.64 51 38 C51.66 38 52.32 38 53 38 C53 38.66 53 39.32 53 40 C53.66 40 54.32 40 55 40 C55.73832608 44.32448133 56.39174965 48.65535464 57 53 C55.25 54.125 55.25 54.125 53 55 C50.75 54.125 50.75 54.125 49 53 C48.20643199 54.74671588 48.20643199 54.74671588 48 57 C49.35400645 59.72981832 49.35400645 59.72981832 51 62 C50.01 62.66 49.02 63.32 48 64 C47.9549714 65.66605828 47.96125079 67.33378384 48 69 C47.0625 71.625 47.0625 71.625 46 74 C45.505 75.485 45.505 75.485 45 77 C44.2575 77.12375 43.515 77.2475 42.75 77.375 C40.18924619 77.9569895 38.31185302 78.80421396 36 80 C35.34 80 34.68 80 34 80 C34 82.64 34 85.28 34 88 C33.34 88 32.68 88 32 88 C32 88.66 32 89.32 32 90 C32.99 90.33 33.98 90.66 35 91 C34.67 91.66 34.34 92.32 34 93 C33.34 93 32.68 93 32 93 C31.67 93.66 31.34 94.32 31 95 C32.65 95.33 34.3 95.66 36 96 C36 95.34 36 94.68 36 94 C36.66 94 37.32 94 38 94 C38 94.66 38 95.32 38 96 C38.99 96 39.98 96 41 96 C40.79375 96.78375 40.5875 97.5675 40.375 98.375 C40.25125 99.24125 40.1275 100.1075 40 101 C40.66 101.66 41.32 102.32 42 103 C43.22819794 107.40248416 43.5632998 110.8734004 41.5 115 C38.35030927 117.51975258 35.97482902 117.77068294 32 118 C32.33 118.66 32.66 119.32 33 120 C34.65919896 120.36871088 36.32774271 120.69595322 38 121 C39.6792238 121.63437344 41.35008418 122.29289322 43 123 C38.48119107 126.01253929 34.2964049 125.5435784 29 125 C20.91720703 123.07668481 15.18223638 118.31984038 9 113 C6.77314398 111.20642366 4.53662075 109.42585041 2.296875 107.6484375 C-2.13489956 104.00005743 -5.8694439 99.89929667 -9.65625 95.59375 C-12.64953654 92.28117957 -15.82720249 89.18835318 -19.0546875 86.10546875 C-21.10212118 83.88947125 -22.53932821 81.6319652 -24 79 C-21.625 79.1875 -21.625 79.1875 -19 80 C-18.29289322 81.64991582 -17.63437344 83.3207762 -17 85 C-14.31610516 88.25344229 -12.03868652 90.65377116 -8 92 C-8 92.66 -8 93.32 -8 94 C-7.01 94 -6.02 94 -5 94 C-5 92.68 -5 91.36 -5 90 C-5.66 90 -6.32 90 -7 90 C-5.01239669 83.11983471 -5.01239669 83.11983471 -2 81 C0.6875 80.3125 0.6875 80.3125 3 80 C3 79.34 3 78.68 3 78 C5.475 77.505 5.475 77.505 8 77 C8.33 75.35 8.66 73.7 9 72 C11.97 71.01 11.97 71.01 15 70 C14.98839844 69.38511719 14.97679687 68.77023437 14.96484375 68.13671875 C14.95582031 67.32847656 14.94679688 66.52023437 14.9375 65.6875 C14.92589844 64.88699219 14.91429687 64.08648438 14.90234375 63.26171875 C15 61 15 61 16 58 C16.66 58 17.32 58 18 58 C18.33 56.02 18.66 54.04 19 52 C19.99 52.33 20.98 52.66 22 53 C22 52.01 22 51.02 22 50 C22.99 50.495 22.99 50.495 24 51 C24.33 50.67 24.66 50.34 25 50 C22 48.66666667 22 48.66666667 19 50 C18.505 50.99 18.505 50.99 18 52 C17.34 52 16.68 52 16 52 C15.27286915 47.90988897 15 44.14906902 15 40 C14.01 40.495 14.01 40.495 13 41 C14.56245611 37.16488047 17.10365784 34.89634216 20 32 C21.29519995 29.83379456 21.29519995 29.83379456 22 28 C22.99 28 23.98 28 25 28 C23.50139458 25.00278916 21.02394128 22.94442427 18.65234375 20.625 C17.56171378 19.54701175 16.4712232 18.46888246 15.38085938 17.390625 C13.6554635 15.69010635 11.92853382 13.99120632 10.19897461 12.29492188 C8.53325243 10.65928741 6.87370362 9.01758959 5.21484375 7.375 C4.6930101 6.86662598 4.17117645 6.35825195 3.63352966 5.83447266 C2.38399705 4.5937859 1.18651951 3.3010791 0 2 C0 1.34 0 0.68 0 0 Z " fill="#7F2FE4" transform="translate(424,570)"/>
<path d="M0 0 C1.32 0.66 2.64 1.32 4 2 C3.773125 2.53625 3.54625 3.0725 3.3125 3.625 C2.85079518 7.13395665 4.16859862 9.05667636 6 12 C6.99 12.33 7.98 12.66 9 13 C13.15637996 17.02649308 15.2413046 22.30978447 16 28 C15.0703125 30.30859375 15.0703125 30.30859375 14 32 C15.65 31.34 17.3 30.68 19 30 C19 33 19 33 17 36 C17.66 36 18.32 36 19 36 C21.09440189 39.40340307 21.25797575 42.04437178 21 46 C20.505 46.99 20.505 46.99 20 48 C20.66 48 21.32 48 22 48 C21.91621094 48.62648438 21.83242188 49.25296875 21.74609375 49.8984375 C21.59333984 51.12433594 21.59333984 51.12433594 21.4375 52.375 C21.33308594 53.18710937 21.22867188 53.99921875 21.12109375 54.8359375 C20.81762672 57.04899186 20.81762672 57.04899186 22 59 C21.835 60.11375 21.67 61.2275 21.5 62.375 C20.79387541 65.77334793 20.79387541 65.77334793 21.5625 68.125 C22.19581081 70.83918919 21.09040022 72.49849361 20 75 C20 75.99 20 76.98 20 78 C20.99 78.495 20.99 78.495 22 79 C21.360625 79.103125 20.72125 79.20625 20.0625 79.3125 C19.381875 79.539375 18.70125 79.76625 18 80 C17.505 81.485 17.505 81.485 17 83 C17.99 84.485 17.99 84.485 19 86 C17.68 85.67 16.36 85.34 15 85 C15 85.99 15 86.98 15 88 C15.99 88.33 16.98 88.66 18 89 C17.01 89.66 16.02 90.32 15 91 C14.01 90.505 14.01 90.505 13 90 C13.33 91.98 13.66 93.96 14 96 C13.34 96 12.68 96 12 96 C11.76667969 96.55171875 11.53335938 97.1034375 11.29296875 97.671875 C9.65980716 100.61255267 7.60660793 102.79077251 5.3125 105.25 C2.3348986 108.46649205 -0.63083847 111.68574181 -3.5 115 C-7.91228609 120.07889047 -12.46240415 125.03329549 -17 130 C-17.66 128.68 -18.32 127.36 -19 126 C-18.34 126 -17.68 126 -17 126 C-17 123.03 -17 120.06 -17 117 C-15.02 117 -13.04 117 -11 117 C-11.57344937 114.13275314 -11.8614515 113.1385485 -14 111 C-13.649375 110.05125 -13.29875 109.1025 -12.9375 108.125 C-11.64973223 105.12939828 -11.64973223 105.12939828 -13 103 C-13 99 -13 99 -11.5625 97.4375 C-11.046875 96.963125 -10.53125 96.48875 -10 96 C-9.505 94.515 -9.505 94.515 -9 93 C-6 91 -6 91 -3 91 C-3.99 90.01 -4.98 89.02 -6 88 C-5.01 86.02 -4.02 84.04 -3 82 C-3.66 81.67 -4.32 81.34 -5 81 C-4.125 74.25 -4.125 74.25 -3 72 C-2.01 72 -1.02 72 0 72 C0.33 71.34 0.66 70.68 1 70 C1.66 70.99 2.32 71.98 3 73 C4.32 73 5.64 73 7 73 C7.99 73.99 7.99 73.99 9 75 C8.34 75 7.68 75 7 75 C7 75.99 7 76.98 7 78 C7.99 77.67 8.98 77.34 10 77 C10 77.66 10 78.32 10 79 C11.64570159 77.94369738 11.64570159 77.94369738 13 76 C13.2503577 72.37464024 13.2503577 72.37464024 13 69 C9.10540926 68.78918149 9.10540926 68.78918149 6 70 C5.54625 69.195625 5.0925 68.39125 4.625 67.5625 C3.25274335 64.91143428 3.25274335 64.91143428 1 64 C1.185625 63.4225 1.37125 62.845 1.5625 62.25 C2.04023546 59.79307475 1.75729364 58.35602466 1 56 C1.99 55.34 2.98 54.68 4 54 C4.99 54.495 4.99 54.495 6 55 C5.505 52.03 5.505 52.03 5 49 C4.34 49 3.68 49 3 49 C2.7525 49.66 2.505 50.32 2.25 51 C0.68182955 54.76360907 -1.14505046 58.3711424 -3 62 C-3.66 61.34 -4.32 60.68 -5 60 C-5.99 60.495 -5.99 60.495 -7 61 C-10 61 -10 61 -12 60 C-11.44854729 54.76119922 -10.57077907 50.02649303 -9 45 C-8.34 45 -7.68 45 -7 45 C-7.79117904 43.00016466 -7.79117904 43.00016466 -9 41 C-10.485 40.505 -10.485 40.505 -12 40 C-12.33 40.66 -12.66 41.32 -13 42 C-13.99 41.67 -14.98 41.34 -16 41 C-16.75 38.75 -16.75 38.75 -17 36 C-15.0625 33.6875 -15.0625 33.6875 -13 32 C-12.01 32.33 -11.02 32.66 -10 33 C-10.33 32.34 -10.66 31.68 -11 31 C-11.99 31 -12.98 31 -14 31 C-14 30.01 -14 29.02 -14 28 C-14.99 27.67 -15.98 27.34 -17 27 C-16.649375 26.236875 -16.29875 25.47375 -15.9375 24.6875 C-14.67639116 21.95240621 -14.67639116 21.95240621 -16 19 C-18.1515662 20.84399771 -18.1515662 20.84399771 -18.75 23.375 C-20.41752707 26.87680684 -22.71121212 28.06962451 -26 30 C-26.66 29.67 -27.32 29.34 -28 29 C-27.16597656 28.11699219 -26.33195313 27.23398437 -25.47265625 26.32421875 C-19.32616381 19.7794358 -13.38730286 13.22613577 -7.90234375 6.109375 C-5.99540052 3.99489996 -4.56663116 3.13123868 -2 2 C-1.34 1.34 -0.68 0.68 0 0 Z " fill="#CF5CCC" transform="translate(705,323)"/>
<path d="M0 0 C2 1.3125 2 1.3125 4 3 C4 3.99 4 4.98 4 6 C4.66 6 5.32 6 6 6 C5 9 5 9 3 11 C4.32 11.33 5.64 11.66 7 12 C7 12.99 7 13.98 7 15 C7.66 15 8.32 15 9 15 C9.66 12.69 10.32 10.38 11 8 C15 8 15 8 17.8125 10.25 C18.534375 11.1575 19.25625 12.065 20 13 C19.6875 14.9375 19.6875 14.9375 19 17 C19.56673801 20.2006714 19.56673801 20.2006714 21 23 C21.99 23.2475 21.99 23.2475 23 23.5 C23.99 23.7475 23.99 23.7475 25 24 C26.37452185 26.94540396 27.10175534 29.05876307 26.75 32.3125 C26 34 26 34 24 35 C23.67 35.99 23.34 36.98 23 38 C22.34 38 21.68 38 21 38 C21 39.32 21 40.64 21 42 C21.99 41.67 22.98 41.34 24 41 C25.99673484 40.64763503 27.99650739 40.31165441 30 40 C30.71875 42.26171875 30.71875 42.26171875 31 45 C29.59375 46.95703125 29.59375 46.95703125 27.5 48.8125 C24.72393965 51.38683971 22.08866368 53.93626106 19.625 56.8125 C16.80282503 60.09215082 13.91756915 63.30477699 11 66.5 C7.54671847 70.28662998 4.13900949 74.1047632 0.77734375 77.97265625 C-2.04215797 81.18874722 -4.91672922 84.35491249 -7.78515625 87.52734375 C-10.43149613 90.48172319 -13.01920462 93.4835572 -15.58984375 96.50390625 C-17 98 -17 98 -19 99 C-19 97.35 -19 95.7 -19 94 C-18.38125 93.9175 -17.7625 93.835 -17.125 93.75 C-14.86719166 93.1870503 -14.86719166 93.1870503 -13.75 91.1875 C-12.78378378 88.75478604 -12.78378378 88.75478604 -13 85 C-11.824375 85.0928125 -11.824375 85.0928125 -10.625 85.1875 C-9.75875 85.125625 -8.8925 85.06375 -8 85 C-7.34 84.01 -6.68 83.02 -6 82 C-7.32 81.67 -8.64 81.34 -10 81 C-10 80.34 -10 79.68 -10 79 C-9.34 79 -8.68 79 -8 79 C-7.31292445 76.50935112 -7 74.62113708 -7 72 C-7 71.01 -7 70.02 -7 69 C-6.34 69 -5.68 69 -5 69 C-5 68.01 -5 67.02 -5 66 C-2.03 65.01 -2.03 65.01 1 64 C0.67 63.236875 0.34 62.47375 0 61.6875 C-1 59 -1 59 -1 56 C-0.34 56 0.32 56 1 56 C1 54.35 1 52.7 1 51 C0.01 51 -0.98 51 -2 51 C-2.66 50.67 -3.32 50.34 -4 50 C-4.99 52.97 -5.98 55.94 -7 59 C-7.99 59 -8.98 59 -10 59 C-10.33 59.99 -10.66 60.98 -11 62 C-12.65 61.67 -14.3 61.34 -16 61 C-16.495 59.515 -16.495 59.515 -17 58 C-16.525625 57.443125 -16.05125 56.88625 -15.5625 56.3125 C-13.22826375 52.85783036 -13.79423432 50.11531354 -14 46 C-17.01031744 45.06576355 -17.86650268 44.95550089 -21 46 C-22.10844919 42.67465243 -21.84454356 40.37817425 -21 37 C-22.175625 37.061875 -22.175625 37.061875 -23.375 37.125 C-26 37 -26 37 -28 35 C-28.66 34.67 -29.32 34.34 -30 34 C-29.690625 33.29875 -29.38125 32.5975 -29.0625 31.875 C-27.96228222 28.89794014 -27.51041774 26.12630866 -27 23 C-25.59649123 17.38596491 -25.59649123 17.38596491 -22.875 15.625 C-22.25625 15.41875 -21.6375 15.2125 -21 15 C-20.67 16.65 -20.34 18.3 -20 20 C-18.68 20.33 -17.36 20.66 -16 21 C-15.67 22.32 -15.34 23.64 -15 25 C-14.01 21.535 -14.01 21.535 -13 18 C-9.04 17.505 -9.04 17.505 -5 17 C-6.84188612 14.94729537 -6.84188612 14.94729537 -9 14 C-9 13.34 -9 12.68 -9 12 C-8 11 -7 10 -6 9 C-5.67 8.01 -5.34 7.02 -5 6 C-2.9375 5.3125 -2.9375 5.3125 -1 5 C-0.67 3.35 -0.34 1.7 0 0 Z " fill="#9A3ADA" transform="translate(549,531)"/>
<path d="M0 0 C0.66 1.98 1.32 3.96 2 6 C0.68 6.33 -0.64 6.66 -2 7 C-1.67 7.99 -1.34 8.98 -1 10 C-1.66 10 -2.32 10 -3 10 C-3 10.66 -3 11.32 -3 12 C-2.34 12.33 -1.68 12.66 -1 13 C-2.98 13.99 -2.98 13.99 -5 15 C-5 17.97 -5 20.94 -5 24 C-3.68 24.33 -2.36 24.66 -1 25 C-0.731875 24.236875 -0.46375 23.47375 -0.1875 22.6875 C0.95795247 20.09516021 1.76415181 18.69924463 4 17 C4.99 17 5.98 17 7 17 C7 15.68 7 14.36 7 13 C8.8125 11.9375 8.8125 11.9375 11 11 C14.68802044 12.22934015 15.72356973 13.93859378 18 17 C15.525 19.475 15.525 19.475 13 22 C13.66 23.65 14.32 25.3 15 27 C16.32 26.34 17.64 25.68 19 25 C18.67 23.35 18.34 21.7 18 20 C18.66 19.67 19.32 19.34 20 19 C20 17.68 20 16.36 20 15 C20.66 15 21.32 15 22 15 C22.495 15.99 22.495 15.99 23 17 C23.66 16.67 24.32 16.34 25 16 C25.66 16.33 26.32 16.66 27 17 C27 14.69 27 12.38 27 10 C28.98 9.67 30.96 9.34 33 9 C33.66666667 12.33333333 34.33333333 15.66666667 35 19 C36.98 19.66 38.96 20.32 41 21 C41 21.66 41 22.32 41 23 C43.87592677 20.12407323 43.96378971 16.91071092 44 13 C43.18156968 9.6184661 43.18156968 9.6184661 42 7 C42.99 6.67 43.98 6.34 45 6 C45.66 5.01 46.32 4.02 47 3 C50 4 50 4 53 5 C53 8.29668555 52.65225958 10.82023454 52 14 C52 14.99 52 15.98 52 17 C52.66 17 53.32 17 54 17 C54.495 15.515 54.495 15.515 55 14 C56.875 13.1875 56.875 13.1875 59 13 C59.99 13.66 60.98 14.32 62 15 C61.34 15.99 60.68 16.98 60 18 C59.01 16.515 59.01 16.515 58 15 C58 15.99 58 16.98 58 18 C57.34 18 56.68 18 56 18 C55.34 19.65 54.68 21.3 54 23 C53.34 23 52.68 23 52 23 C52.04640625 23.67546875 52.0928125 24.3509375 52.140625 25.046875 C52.43740573 32.38159879 52.43740573 32.38159879 50.1875 35.5625 C48 37 48 37 45 38 C45 39.65 45 41.3 45 43 C43.515 42.505 43.515 42.505 42 42 C41.67 42.99 41.34 43.98 41 45 C41 44.34 41 43.68 41 43 C40.34 43 39.68 43 39 43 C39 43.66 39 44.32 39 45 C37.865625 45.4125 36.73125 45.825 35.5625 46.25 C31.92604989 47.54575674 31.92604989 47.54575674 31.1875 50 C31.125625 50.66 31.06375 51.32 31 52 C30.34 52.99 29.68 53.98 29 55 C30.32 54.34 31.64 53.68 33 53 C32.49396008 55.16874252 32.00016187 56.99967627 31 59 C30.01 59 29.02 59 28 59 C28 58.34 28 57.68 28 57 C27.12408203 56.85691406 27.12408203 56.85691406 26.23046875 56.7109375 C23.52016452 55.84705769 22.28637877 54.6545413 20.3125 52.625 C19.71050781 52.01914062 19.10851562 51.41328125 18.48828125 50.7890625 C17 49 17 49 16 46 C14.80375 45.443125 13.6075 44.88625 12.375 44.3125 C8.10893109 42.3161012 5.7270037 39.75586817 2.78125 36.140625 C0.96216528 33.95453196 -0.96635598 31.98671377 -3 30 C-6.24196335 26.80791301 -9.2346303 23.47869992 -12.19140625 20.0234375 C-14.81534897 17.08779532 -17.64618465 14.37877667 -20.49609375 11.6640625 C-22 10 -22 10 -22 8 C-21.34 8 -20.68 8 -20 8 C-18.2734375 9.75 -18.2734375 9.75 -16.375 12 C-15.74335938 12.7425 -15.11171875 13.485 -14.4609375 14.25 C-13.97882813 14.8275 -13.49671875 15.405 -13 16 C-12.67 14.35 -12.34 12.7 -12 11 C-10.68 11.33 -9.36 11.66 -8 12 C-8.05800781 11.38511719 -8.11601562 10.77023437 -8.17578125 10.13671875 C-8.3130371 7.6778783 -8.35461889 5.43908604 -8 3 C-5.16755403 0.47376441 -3.78435224 0 0 0 Z " fill="#722BE6" transform="translate(388,605)"/>
<path d="M0 0 C7.95605578 0.17295773 13.40175458 4.62750001 19.0546875 9.92578125 C24.61811765 15.88318821 28.30135619 22.79093521 29 31 C29.103125 32.19625 29.20625 33.3925 29.3125 34.625 C29.0348073 50.82374067 18.15821948 63.4452566 7.53466797 74.36962891 C5.23168938 76.81622308 3.11823483 79.39263832 1 82 C-0.37432457 78.18243176 0.32024961 74.92744671 1 71 C2.33333333 71 3.66666667 71 5 71 C4.814375 69.906875 4.62875 68.81375 4.4375 67.6875 C4 64 4 64 5 61 C5.66 61 6.32 61 7 61 C7.17150342 55.08350462 7.17150342 55.08350462 6.375 49.25 C6 47 6 47 7 44.5625 C8.27847266 41.28641381 7.585449 39.45085081 7 36 C7.00531796 33.70796075 7.04847102 31.41576746 7.125 29.125 C7.17237234 24.10353199 6.82166796 20.48215689 4.734375 15.953125 C3.30255865 12.1451028 3.2396219 8.03225818 3 4 C1.68 4 0.36 4 -1 4 C-0.67 2.68 -0.34 1.36 0 0 Z " fill="#EE74C9" transform="translate(743,308)"/>
<path d="M0 0 C1.051875 0.1546875 1.051875 0.1546875 2.125 0.3125 C2.125 0.9725 2.125 1.6325 2.125 2.3125 C4.6 2.8075 4.6 2.8075 7.125 3.3125 C7.125 2.6525 7.125 1.9925 7.125 1.3125 C7.785 1.3125 8.445 1.3125 9.125 1.3125 C9.62 2.3025 9.62 2.3025 10.125 3.3125 C11.115 3.9725 12.105 4.6325 13.125 5.3125 C12.795 6.3025 12.465 7.2925 12.125 8.3125 C11.465 8.3125 10.805 8.3125 10.125 8.3125 C10.186875 9.240625 10.24875 10.16875 10.3125 11.125 C10.0948755 14.82461646 9.56030293 14.87719707 7.125 17.3125 C7.38759783 19.79301222 7.38759783 19.79301222 8.125 22.3125 C8.125 23.6325 8.125 24.9525 8.125 26.3125 C8.3725 27.075625 8.62 27.83875 8.875 28.625 C9.25792667 32.74146169 7.34066274 34.88829395 5.125 38.3125 C4.795 37.3225 4.465 36.3325 4.125 35.3125 C2.145 35.8075 2.145 35.8075 0.125 36.3125 C-0.205 37.6325 -0.535 38.9525 -0.875 40.3125 C-3.25 40.9375 -3.25 40.9375 -5.875 41.3125 C-6.535 40.6525 -7.195 39.9925 -7.875 39.3125 C-11.06319752 39.65166995 -13.83281049 40.29843683 -16.875 41.3125 C-16.545 40.3225 -16.215 39.3325 -15.875 38.3125 C-16.7 37.94125 -17.525 37.57 -18.375 37.1875 C-19.2 36.56875 -20.025 35.95 -20.875 35.3125 C-21.1875 32.125 -21.1875 32.125 -20.875 29.3125 C-22.195 30.6325 -23.515 31.9525 -24.875 33.3125 C-24.545 33.9725 -24.215 34.6325 -23.875 35.3125 C-25.36 35.8075 -25.36 35.8075 -26.875 36.3125 C-27.37 38.7875 -27.37 38.7875 -27.875 41.3125 C-28.535 41.3125 -29.195 41.3125 -29.875 41.3125 C-30.535 39.6625 -31.195 38.0125 -31.875 36.3125 C-32.535 36.9725 -33.195 37.6325 -33.875 38.3125 C-36.5 38.9375 -36.5 38.9375 -38.875 39.3125 C-37.67118552 36.81888429 -36.42071278 34.63106917 -34.875 32.3125 C-34.215 32.3125 -33.555 32.3125 -32.875 32.3125 C-32.64039063 31.75820313 -32.40578125 31.20390625 -32.1640625 30.6328125 C-30.55045708 27.72832275 -28.52776205 25.60629995 -26.25 23.1875 C-22.1165869 18.73751046 -18.31332196 14.16133239 -14.6640625 9.30859375 C-12.80900309 7.23886589 -11.37303399 6.44434375 -8.875 5.3125 C-7.905625 4.44625 -6.93625 3.58 -5.9375 2.6875 C-2.875 0.3125 -2.875 0.3125 0 0 Z " fill="#9B3ADA" transform="translate(562.875,487.6875)"/>
<path d="M0 0 C2.91165138 1.31765777 4.98964473 2.73763414 7.24996948 4.98927307 C7.86944458 5.60166336 8.48891968 6.21405365 9.12716675 6.84500122 C9.79531403 7.51562592 10.4634613 8.18625061 11.15185547 8.87719727 C11.86456604 9.58479691 12.57727661 10.29239655 13.31158447 11.0214386 C15.668656 13.36460008 18.01821289 15.71512969 20.3671875 18.06640625 C22.00597499 19.70130604 23.64498579 21.33598201 25.28421021 22.97044373 C28.72235672 26.40112383 32.15659562 29.83566017 35.58837891 33.27270508 C39.97343208 37.6635366 44.3697051 42.04293611 48.76925468 46.41923618 C52.15982621 49.79502525 55.54339134 53.17777025 58.92502213 56.56251335 C60.54209811 58.17907784 62.16152246 59.79329692 63.78338242 61.40506172 C66.05932284 63.66857567 68.32540105 65.94154685 70.58935547 68.21704102 C71.25345428 68.87349609 71.9175531 69.52995117 72.60177612 70.20629883 C76.53021174 74.17881479 79.70511438 78.26938257 82.67687702 83.00355625 C84.66695066 86.00635352 86.99273687 88.29493545 89.58203125 90.8046875 C90.08167892 91.29534698 90.5813266 91.78600647 91.09611511 92.29153442 C92.66105224 93.82694039 94.23570851 95.35177821 95.8125 96.875 C97.40607981 98.42063992 98.9972066 99.96853805 100.58244324 101.5227356 C102.00616776 102.91784858 103.43804498 104.30462737 104.87036133 105.69091797 C107 108 107 108 108 111 C107.34 111 106.68 111 106 111 C106 110.34 106 109.68 106 109 C104.515 109.495 104.515 109.495 103 110 C102.01 109.01 101.02 108.02 100 107 C99.731875 107.639375 99.46375 108.27875 99.1875 108.9375 C98 111 98 111 95 112 C92.375 110.8125 92.375 110.8125 90 109 C88.79845082 105.44858564 88.62663602 101.73633717 88.28125 98.0234375 C88.10096051 95.93540683 88.10096051 95.93540683 87 94 C86.175 93.835 85.35 93.67 84.5 93.5 C83.675 93.335 82.85 93.17 82 93 C81.67 92.34 81.34 91.68 81 91 C80.34 90.67 79.68 90.34 79 90 C78.3125 87.5 78.3125 87.5 78 85 C78.33 84.67 78.66 84.34 79 84 C77.515 83.505 77.515 83.505 76 83 C76.33 84.32 76.66 85.64 77 87 C75.8553125 86.9071875 75.8553125 86.9071875 74.6875 86.8125 C71.95474688 86.74101915 71.95474688 86.74101915 70.1875 88.5 C69.795625 88.995 69.40375 89.49 69 90 C67.875 84.375 67.875 84.375 69 81 C66.03824877 81.61277612 64.61941217 82.25372522 62 84 C61.01 84 60.02 84 59 84 C57.66018514 84.3062434 56.32488113 84.63451555 55 85 C54.01 83.68 53.02 82.36 52 81 C51.01 81.99 50.02 82.98 49 84 C47.68 83.34 46.36 82.68 45 82 C45.50603992 79.83125748 45.99983813 78.00032373 47 76 C47.99 76 48.98 76 50 76 C50.66 74.68 51.32 73.36 52 72 C52.66 72 53.32 72 54 72 C54.33 71.34 54.66 70.68 55 70 C55.66 70 56.32 70 57 70 C57 69.34 57 68.68 57 68 C56.34 68 55.68 68 55 68 C55 67.01 55 66.02 55 65 C55.66 65 56.32 65 57 65 C57 64.34 57 63.68 57 63 C56.01 63 55.02 63 54 63 C54 62.34 54 61.68 54 61 C53.01 61 52.02 61 51 61 C51 61.99 51 62.98 51 64 C49.68 63.67 48.36 63.34 47 63 C47.66 63 48.32 63 49 63 C49 60.36 49 57.72 49 55 C47.35 55 45.7 55 44 55 C44.33 53.35 44.66 51.7 45 50 C44.01 49.505 44.01 49.505 43 49 C43 48.34 43 47.68 43 47 C42.34 47 41.68 47 41 47 C41.33 46.01 41.66 45.02 42 44 C40.7424021 42.02858097 40.7424021 42.02858097 38.875 40.125 C38.27429688 39.46757813 37.67359375 38.81015625 37.0546875 38.1328125 C34.73367653 35.72355016 32.36672675 33.36442774 30 31 C28.4637887 29.45691506 26.92886563 27.91255478 25.39389038 26.36824036 C23.01508556 23.97599876 20.63356937 21.58646376 18.25195312 19.19702148 C16.99618205 17.93618681 15.74130492 16.67446117 14.48730469 15.41186523 C12.66836443 13.58081454 10.84622992 11.75299617 9.0234375 9.92578125 C8.46401459 9.36119705 7.90459167 8.79661285 7.32821655 8.21492004 C4.97769368 5.86405849 2.77603913 3.85069275 0 2 C0 1.34 0 0.68 0 0 Z " fill="#6F2CE7" transform="translate(343,489)"/>
<path d="M0 0 C0.33 0.66 0.66 1.32 1 2 C0.01 2 -0.98 2 -2 2 C-2 2.66 -2 3.32 -2 4 C-0.68 4 0.64 4 2 4 C2.19335938 4.79664063 2.38671875 5.59328125 2.5859375 6.4140625 C2.97652344 8.00347656 2.97652344 8.00347656 3.375 9.625 C3.63023437 10.66914063 3.88546875 11.71328125 4.1484375 12.7890625 C4.9428469 15.99009616 4.9428469 15.99009616 6.09765625 18.96484375 C7.13308318 22.44764343 7.16264369 25.31229845 7.0625 28.9375 C6.95498398 34.56171468 6.95498398 34.56171468 7.625 40.125 C8 43 8 43 7 44.9375 C5.63477839 47.75326956 6.2944464 49.96218181 6.765625 52.96875 C7.0941324 55.81581409 6.72267318 58.2407024 6 61 C5.34 61.66 4.68 62.32 4 63 C3.75787127 64.98128508 3.75787127 64.98128508 3.875 67.125 C3.91625 68.40375 3.9575 69.6825 4 71 C5.485 71.495 5.485 71.495 7 72 C6.01 72.495 6.01 72.495 5 73 C2.875 72.0625 2.875 72.0625 1 71 C1 72.32 1 73.64 1 75 C0.34 75 -0.32 75 -1 75 C-1 75.99 -1 76.98 -1 78 C-0.34 78.33 0.32 78.66 1 79 C0.34 80.65 -0.32 82.3 -1 84 C-1.66 84 -2.32 84 -3 84 C-3.22429688 84.54140625 -3.44859375 85.0828125 -3.6796875 85.640625 C-5.41148866 88.73532294 -7.71619268 91.17925605 -10.125 93.75 C-10.59292969 94.25660156 -11.06085937 94.76320313 -11.54296875 95.28515625 C-12.69126541 96.52719141 -13.84508672 97.76411494 -15 99 C-15 96 -15 96 -13 94 C-12.35232207 91.42938689 -12.35232207 91.42938689 -12 89 C-11.34 89 -10.68 89 -10 89 C-9.34 86.36 -8.68 83.72 -8 81 C-8.33 81 -8.66 81 -9 81 C-9.495 78.03 -9.495 78.03 -10 75 C-8.515 74.505 -8.515 74.505 -7 74 C-7 73.01 -7 72.02 -7 71 C-6.54542991 66.90886918 -6.09543061 62.97093597 -5 59 C-4.02825727 55.25275679 -4.07840071 52.79264882 -5.0625 49.0625 C-6.05865554 44.63878298 -5.64767235 42.26456372 -4 38 C-4.29154528 35.9934825 -4.63182546 33.99388029 -5 32 C-5.21122748 29.71039844 -5.39867992 27.41848105 -5.5625 25.125 C-5.64628906 23.97257812 -5.73007812 22.82015625 -5.81640625 21.6328125 C-5.87699219 20.76398438 -5.93757812 19.89515625 -6 19 C-6.66 19 -7.32 19 -8 19 C-8.33 19.66 -8.66 20.32 -9 21 C-9.33 20.01 -9.66 19.02 -10 18 C-9.505 17.278125 -9.01 16.55625 -8.5 15.8125 C-6.34869188 11.77879727 -7.21914032 9.47219635 -8 5 C-8 3.68 -8 2.36 -8 1 C-2.25 -1.125 -2.25 -1.125 0 0 Z " fill="#E56DC9" transform="translate(744,308)"/>
<path d="M0 0 C7.18848938 3.13708199 11.45752102 9.83130256 14.2890625 16.91015625 C15.21539017 19.63315241 15.75579342 22.13057272 16 25 C16.103125 26.19625 16.20625 27.3925 16.3125 28.625 C16.17775013 37.43427265 11.99308874 46.85003279 7 54 C6.01 54.495 6.01 54.495 5 55 C3.73560855 52.47121711 3.70952617 50.37987873 3.5 47.5625 C3.26693358 44.43691282 2.99525057 41.98575171 2 39 C1.9045313 36.68909583 1.87014613 34.37537025 1.875 32.0625 C1.87242187 30.83660156 1.86984375 29.61070312 1.8671875 28.34765625 C2 25 2 25 2.5703125 22.80859375 C3.10773137 20.54654888 2.59958673 19.23294369 2 17 C1.93311409 15.08438746 1.91468281 13.16664408 1.9375 11.25 C1.94652344 10.26515625 1.95554687 9.2803125 1.96484375 8.265625 C1.97644531 7.51796875 1.98804688 6.7703125 2 6 C2.66 6 3.32 6 4 6 C2.68 4.02 1.36 2.04 0 0 Z " fill="#F87DC6" transform="translate(756,314)"/>
<path d="M0 0 C0 3.55571281 -0.47655031 3.86726899 -2.8515625 6.328125 C-3.45613281 6.96363281 -4.06070313 7.59914063 -4.68359375 8.25390625 C-5.32425781 8.91261719 -5.96492187 9.57132812 -6.625 10.25 C-7.86859787 11.54552263 -9.1107955 12.84239089 -10.3515625 14.140625 C-10.96032227 14.77548828 -11.56908203 15.41035156 -12.19628906 16.06445312 C-13.99201712 17.99143364 -15.70162959 19.97011289 -17.3984375 21.984375 C-18.25695312 22.97953125 -19.11546875 23.9746875 -20 25 C-20.33 25 -20.66 25 -21 25 C-21 22.69 -21 20.38 -21 18 C-20.01 18 -19.02 18 -18 18 C-18.1546875 16.6078125 -18.1546875 16.6078125 -18.3125 15.1875 C-18.209375 14.135625 -18.10625 13.08375 -18 12 C-15.61107499 10.11400657 -14.08148442 9 -11 9 C-10.67 8.34 -10.34 7.68 -10 7 C-9.01 7.33 -8.02 7.66 -7 8 C-7.33 7.01 -7.66 6.02 -8 5 C-7.67 4.34 -7.34 3.68 -7 3 C-5.33499557 2.65846063 -3.66821323 2.32550502 -2 2 C-1.34 1.34 -0.68 0.68 0 0 Z " fill="#C052CF" transform="translate(685,454)"/>
<path d="M0 0 C0 3.45414505 -0.32031757 3.70662305 -2.59765625 6.07421875 C-3.1491333 6.65606934 -3.70061035 7.23791992 -4.26879883 7.83740234 C-4.86072021 8.44793457 -5.4526416 9.0584668 -6.0625 9.6875 C-7.25605436 10.94320681 -8.44876828 12.19971301 -9.640625 13.45703125 C-10.5078418 14.36702881 -10.5078418 14.36702881 -11.39257812 15.29541016 C-14.36091448 18.44318118 -17.19066794 21.71052755 -20 25 C-20.66 24.01 -21.32 23.02 -22 22 C-21.195625 21.54625 -20.39125 21.0925 -19.5625 20.625 C-16.91143428 19.25274335 -16.91143428 19.25274335 -16 17 C-17.32 16.34 -18.64 15.68 -20 15 C-20 14.34 -20 13.68 -20 13 C-19.38511719 12.96261719 -18.77023437 12.92523438 -18.13671875 12.88671875 C-16.92435547 12.78810547 -16.92435547 12.78810547 -15.6875 12.6875 C-14.88699219 12.62949219 -14.08648438 12.57148438 -13.26171875 12.51171875 C-10.55420599 11.89913814 -9.62427311 11.23337553 -8 9 C-7.42982192 6.95899762 -7.42982192 6.95899762 -7.3125 4.8125 C-7.1578125 2.9253125 -7.1578125 2.9253125 -7 1 C-6.34 1.33 -5.68 1.66 -5 2 C-4.01 2 -3.02 2 -2 2 C-1.34 1.34 -0.68 0.68 0 0 Z " fill="#C250DE" transform="translate(646,498)"/>
<path d="M0 0 C1.1055189 0.93590504 2.20935453 1.87379858 3.3125 2.8125 C3.92738281 3.33457031 4.54226563 3.85664062 5.17578125 4.39453125 C7 6 7 6 8.53125 7.65625 C10.74908676 9.68533469 13.0891054 9.67656727 16 10 C16 11.65 16 13.3 16 15 C16.99 15 17.98 15 19 15 C19.23460937 15.88945313 19.46921875 16.77890625 19.7109375 17.6953125 C21.15074469 21.38645458 22.76161167 23.17523386 25.625 25.875 C26.44226563 26.65617188 27.25953125 27.43734375 28.1015625 28.2421875 C28.72804688 28.82226562 29.35453125 29.40234375 30 30 C29.67 30.66 29.34 31.32 29 32 C17.10566665 20.28144497 17.10566665 20.28144497 11.80078125 14.015625 C8.69234259 10.5363314 5.30118276 7.33616105 1.94140625 4.1015625 C0 2 0 2 0 0 Z " fill="#6731F1" transform="translate(291,534)"/>
<path d="M0 0 C2 1 2 1 3 3 C4.32 2.01 5.64 1.02 7 0 C5.47920927 3.50827915 3.4004327 5.95271646 0.8125 8.75 C-2.7312144 12.60807616 -6.19465298 16.51475775 -9.58984375 20.50390625 C-11 22 -11 22 -13 23 C-13 21.35 -13 19.7 -13 18 C-12.071875 17.87625 -12.071875 17.87625 -11.125 17.75 C-8.86719166 17.1870503 -8.86719166 17.1870503 -7.75 15.1875 C-6.78378378 12.75478604 -6.78378378 12.75478604 -7 9 C-6.21625 9.061875 -5.4325 9.12375 -4.625 9.1875 C-3.75875 9.125625 -2.8925 9.06375 -2 9 C-1.34 8.01 -0.68 7.02 0 6 C-1.32 5.67 -2.64 5.34 -4 5 C-4 4.34 -4 3.68 -4 3 C-3.34 3 -2.68 3 -2 3 C-2 2.34 -2 1.68 -2 1 C-1.34 0.67 -0.68 0.34 0 0 Z " fill="#A33FE4" transform="translate(543,607)"/>
<path d="M0 0 C0 3.63464315 -0.62548537 4.02840882 -3.0625 6.57421875 C-3.69414063 7.24130859 -4.32578125 7.90839844 -4.9765625 8.59570312 C-5.64429688 9.28599609 -6.31203125 9.97628906 -7 10.6875 C-8.00160156 11.7403418 -8.00160156 11.7403418 -9.0234375 12.81445312 C-10.67577321 14.54940562 -12.3347315 16.27747207 -14 18 C-14.66 16.68 -15.32 15.36 -16 14 C-15.195625 13.731875 -14.39125 13.46375 -13.5625 13.1875 C-12.716875 12.795625 -11.87125 12.40375 -11 12 C-10.67 11.01 -10.34 10.02 -10 9 C-11.32 9.33 -12.64 9.66 -14 10 C-13.75 8.125 -13.75 8.125 -13 6 C-10.85331506 4.61504198 -9.56128588 4 -7 4 C-4.03337767 2.96168219 -2.24241161 2.24241161 0 0 Z " fill="#9E3CDA" transform="translate(568,586)"/>
<path d="M0 0 C2.53164669 3.79747003 2.57993655 6.61204636 2 11 C0.39130408 17.11779926 -1.58848912 22.65301876 -5 28 C-6.33470263 25.33059475 -5.57333449 23.86667247 -5 21 C-5.33 20.34 -5.66 19.68 -6 19 C-5.34 19 -4.68 19 -4 19 C-4 15.7 -4 12.4 -4 9 C-3.34 9 -2.68 9 -2 9 C-1.67 9.66 -1.34 10.32 -1 11 C-0.67 7.37 -0.34 3.74 0 0 Z " fill="#F68BCF" transform="translate(770,336)"/>
<path d="M0 0 C5.94479027 2.57389821 10.27802909 7.94229248 13 13.75 C13.94661111 16.82648611 14.27480697 18.10271144 13 21 C13 20.01 13 19.02 13 18 C11.68 17.67 10.36 17.34 9 17 C9 16.34 9 15.68 9 15 C8.01 14.67 7.02 14.34 6 14 C5.855625 13.2575 5.71125 12.515 5.5625 11.75 C5.2840625 10.38875 5.2840625 10.38875 5 9 C4.896875 8.34 4.79375 7.68 4.6875 7 C3.71430441 4.16888557 1.936073 2.24834284 0 0 Z " fill="#F788D0" transform="translate(756,314)"/>
<path d="M0 0 C0 3.90838866 -1.50567876 5.11594107 -4 8 C-1.525 8.99 -1.525 8.99 1 10 C0.67 10.99 0.34 11.98 0 13 C-3 14 -3 14 -6 13 C-6 13.99 -6 14.98 -6 16 C-6.66 16 -7.32 16 -8 16 C-8 15.01 -8 14.02 -8 13 C-10.475 14.485 -10.475 14.485 -13 16 C-11.3383196 11.87582937 -8.37661982 8.93445961 -5.375 5.75 C-4.859375 5.19570313 -4.34375 4.64140625 -3.8125 4.0703125 C-2.54574965 2.7097288 -1.27342185 1.35434163 0 0 Z " fill="#A03CE6" transform="translate(543,504)"/>
<path d="M0 0 C1.34313399 0.64669414 2.67391178 1.31903578 4 2 C4.845625 2.433125 5.69125 2.86625 6.5625 3.3125 C9.37785858 5.2615944 10.2526858 7.0849383 12 10 C13.21856974 11.371487 14.48526584 12.70150159 15.79296875 13.98828125 C16.50517578 14.69404297 17.21738281 15.39980469 17.95117188 16.12695312 C18.68916016 16.84818359 19.42714844 17.56941406 20.1875 18.3125 C20.93708984 19.05306641 21.68667969 19.79363281 22.45898438 20.55664062 C24.30153282 22.37571712 26.14859662 24.18994389 28 26 C27.67 26.66 27.34 27.32 27 28 C23.15162167 24.1762616 19.30647906 20.34931029 15.46435547 16.51928711 C14.15568002 15.21565379 12.84611032 13.91291757 11.53564453 12.61108398 C9.65684348 10.74435384 7.78123696 8.87446632 5.90625 7.00390625 C5.31565796 6.41847549 4.72506592 5.83304474 4.11657715 5.22987366 C2.72527666 3.83876757 1.35971469 2.42199477 0 1 C0 0.67 0 0.34 0 0 Z " fill="#040903" transform="translate(382,526)"/>
<path d="M0 0 C0.99 0.33 1.98 0.66 3 1 C-1.9668638 6.69637192 -6.97167385 12.35782624 -12 18 C-12.66 16.68 -13.32 15.36 -14 14 C-13.195625 13.773125 -12.39125 13.54625 -11.5625 13.3125 C-10.716875 12.879375 -9.87125 12.44625 -9 12 C-8.10613836 9.45224694 -8.10613836 9.45224694 -8 7 C-7.34 7 -6.68 7 -6 7 C-6.33 5.35 -6.66 3.7 -7 2 C-6.01 1.67 -5.02 1.34 -4 1 C-4 2.32 -4 3.64 -4 5 C-2.64567325 3.68799596 -1.31266518 2.35368596 0 1 C0 0.67 0 0.34 0 0 Z " fill="#C050D5" transform="translate(661,479)"/>
<path d="M0 0 C0 3.62220741 -0.61301337 4.02443642 -3.02734375 6.57421875 C-3.65447266 7.24130859 -4.28160156 7.90839844 -4.92773438 8.59570312 C-5.59095703 9.28599609 -6.25417969 9.97628906 -6.9375 10.6875 C-7.9265332 11.7403418 -7.9265332 11.7403418 -8.93554688 12.81445312 C-12.48129149 16.55657744 -12.48129149 16.55657744 -14 18 C-14.33 18 -14.66 18 -15 18 C-15 16.35 -15 14.7 -15 13 C-14.01 12.67 -13.02 12.34 -12 12 C-11.67 10.35 -11.34 8.7 -11 7 C-9.68 7.33 -8.36 7.66 -7 8 C-7.33 7.01 -7.66 6.02 -8 5 C-7.67 4.34 -7.34 3.68 -7 3 C-5.33499557 2.65846063 -3.66821323 2.32550502 -2 2 C-1.34 1.34 -0.68 0.68 0 0 Z " fill="#CD59DA" transform="translate(685,454)"/>
<path d="M0 0 C0 0.99 0 1.98 0 3 C-0.515625 3.45375 -1.03125 3.9075 -1.5625 4.375 C-2.2740625 5.179375 -2.2740625 5.179375 -3 6 C-2.73904456 8.67479327 -2.1995243 10.60095141 -1 13 C-3.375 13.625 -3.375 13.625 -6 14 C-6.66 13.34 -7.32 12.68 -8 12 C-8.99 12.99 -9.98 13.98 -11 15 C-11.66 14.67 -12.32 14.34 -13 14 C-8.71 9.38 -4.42 4.76 0 0 Z " fill="#B849E1" transform="translate(613,425)"/>
<path d="M0 0 C0.66 0.33 1.32 0.66 2 1 C1.67 2.98 1.34 4.96 1 7 C2.98 5.68 4.96 4.36 7 3 C5.70396588 5.82868857 4.30810402 7.9701021 2.1796875 10.234375 C1.64472656 10.80800781 1.10976563 11.38164063 0.55859375 11.97265625 C0.00300781 12.55917969 -0.55257812 13.14570312 -1.125 13.75 C-1.68832031 14.35199219 -2.25164063 14.95398438 -2.83203125 15.57421875 C-4.21724146 17.05334151 -5.6080729 18.52719641 -7 20 C-7.33 18.68 -7.66 17.36 -8 16 C-7.195625 15.608125 -6.39125 15.21625 -5.5625 14.8125 C-2.76935262 13.23051809 -2.76935262 13.23051809 -2.1875 10.3125 C-2.125625 9.549375 -2.06375 8.78625 -2 8 C-1.34 8 -0.68 8 0 8 C0 5.36 0 2.72 0 0 Z " fill="#BD4DDE" transform="translate(616,522)"/>
<path d="M0 0 C0 3 0 3 -1.5625 5 C-2.2740625 5.99 -2.2740625 5.99 -3 7 C-2.67 7.99 -2.34 8.98 -2 10 C-2.94875 10.2475 -3.8975 10.495 -4.875 10.75 C-8.43559968 12.17423987 -8.51742659 12.71715887 -10 16 C-12.125 16.75 -12.125 16.75 -14 17 C-12.70396588 14.17131143 -11.30810402 12.0298979 -9.1796875 9.765625 C-8.64472656 9.19199219 -8.10976563 8.61835938 -7.55859375 8.02734375 C-7.00300781 7.44082031 -6.44742188 6.85429687 -5.875 6.25 C-5.31167969 5.64800781 -4.74835937 5.04601562 -4.16796875 4.42578125 C-2.78275854 2.94665849 -1.3919271 1.47280359 0 0 Z " fill="#C753E1" transform="translate(651,382)"/>
<path d="M0 0 C0.33 1.32 0.66 2.64 1 4 C0.34 4 -0.32 4 -1 4 C-1 5.65 -1 7.3 -1 9 C-3.64738916 10.4606285 -4.89448334 11 -8 11 C-7.43040847 7.37386801 -6.07625466 5.74482259 -3.4375 3.25 C-2.79683594 2.63640625 -2.15617188 2.0228125 -1.49609375 1.390625 C-1.00238281 0.93171875 -0.50867188 0.4728125 0 0 Z " fill="#AF45DF" transform="translate(591,450)"/>
<path d="M0 0 C0.66 0 1.32 0 2 0 C2.33 0.66 2.66 1.32 3 2 C3 1.34 3 0.68 3 0 C4.65 0 6.3 0 8 0 C6.55575365 3.23861303 4.74227753 5.61969163 2.375 8.25 C1.74335938 8.95640625 1.11171875 9.6628125 0.4609375 10.390625 C-0.02117187 10.92171875 -0.50328125 11.4528125 -1 12 C-1 9 -1 9 1 6 C0.68493373 2.85778033 0.68493373 2.85778033 0 0 Z " fill="#9A3AE5" transform="translate(495,660)"/>
<path d="M0 0 C0 3 0 3 -2 6 C-2.38499891 7.65549531 -2.72793135 9.3222433 -3 11 C-4.1446875 11.1546875 -4.1446875 11.1546875 -5.3125 11.3125 C-8.17059424 12.04364039 -9.15742885 12.76951913 -11 15 C-11.66 14.67 -12.32 14.34 -13 14 C-12.56429688 13.57589844 -12.12859375 13.15179687 -11.6796875 12.71484375 C-7.54991517 8.64764373 -3.71958871 4.44536212 0 0 Z " fill="#9237EC" transform="translate(478,577)"/>
<path d="M0 0 C0.66 0 1.32 0 2 0 C3.85999285 1.9675587 5.53390198 4.05555598 7.24609375 6.15234375 C8.96005081 8.24798169 8.96005081 8.24798169 12 9 C12 9.66 12 10.32 12 11 C12.66 11 13.32 11 14 11 C14.33 12.65 14.66 14.3 15 16 C9.75715884 11.6309657 4.48058696 7.16722236 0 2 C0 1.34 0 0.68 0 0 Z " fill="#7230F0" transform="translate(366,613)"/>
<path d="M0 0 C0.99 0.33 1.98 0.66 3 1 C3.4375 3.125 3.4375 3.125 3 6 C0.87310854 8.276147 -1.5023433 10.1458722 -4 12 C-3.649375 11.236875 -3.29875 10.47375 -2.9375 9.6875 C-1.67639116 6.95240621 -1.67639116 6.95240621 -3 4 C-1.5625 1.8125 -1.5625 1.8125 0 0 Z " fill="#B145DB" transform="translate(597,547)"/>
<path d="M0 0 C0 0.99 0 1.98 0 3 C-1 4 -2 5 -3 6 C-3.268125 6.804375 -3.53625 7.60875 -3.8125 8.4375 C-5.4260418 11.91935337 -7.7505677 13.09272452 -11 15 C-11.66 14.67 -12.32 14.34 -13 14 C-8.71 9.38 -4.42 4.76 0 0 Z " fill="#D960E3" transform="translate(690,338)"/>
<path d="M0 0 C1.65 0.33 3.3 0.66 5 1 C4.835 1.598125 4.67 2.19625 4.5 2.8125 C3.8885876 5.11344336 3.8885876 5.11344336 4 8 C3.01 8.33 2.02 8.66 1 9 C-0.61949011 6.42786866 -1.04408751 5.32330841 -0.625 2.25 C-0.41875 1.5075 -0.2125 0.765 0 0 Z " fill="#732BE7" transform="translate(420,590)"/>
<path d="M0 0 C0.33 0.99 0.66 1.98 1 3 C3.01508358 3.73323796 3.01508358 3.73323796 5 4 C3.60667426 7.36720387 2.0210714 8.9859524 -1 11 C-1 9.68 -1 8.36 -1 7 C-1.20625 6.319375 -1.4125 5.63875 -1.625 4.9375 C-2 3 -2 3 0 0 Z " fill="#D661D6" transform="translate(704,424)"/>
<path d="M0 0 C0.66 0 1.32 0 2 0 C1.67 1.32 1.34 2.64 1 4 C2.32 4 3.64 4 5 4 C5.33 4.99 5.66 5.98 6 7 C3 7 3 7 0.625 6.25 C-2.20473264 5.69671447 -2.20473264 5.69671447 -4.8125 7.9375 C-5.534375 8.618125 -6.25625 9.29875 -7 10 C-5.32598022 6.04322598 -2.86850715 3.15535787 0 0 Z " fill="#DD63DA" transform="translate(707,318)"/>
<path d="M0 0 C0 3 0 3 -1.5 4.6875 C-1.995 5.120625 -2.49 5.55375 -3 6 C-2.34 6.33 -1.68 6.66 -1 7 C-1.33 7.66 -1.66 8.32 -2 9 C-3.32 9 -4.64 9 -6 9 C-7.54960501 10.28118697 -7.54960501 10.28118697 -8.75 12 C-9.4925 12.99 -10.235 13.98 -11 15 C-11 10.66825307 -8.34177417 8.77646347 -5.5 5.8125 C-4.97535156 5.25369141 -4.45070313 4.69488281 -3.91015625 4.11914062 C-2.61338387 2.73984636 -1.30753741 1.36909356 0 0 Z " fill="#060807" transform="translate(601,551)"/>
<path d="M0 0 C0 4.15560231 -2.2820452 5.84099329 -5 8.6875 C-5.47695313 9.19861328 -5.95390625 9.70972656 -6.4453125 10.23632812 C-7.62359915 11.49709484 -8.81095253 12.74937686 -10 14 C-10 11 -10 11 -8 9 C-7.35232207 6.42938689 -7.35232207 6.42938689 -7 4 C-6.34 4 -5.68 4 -5 4 C-4.67 3.34 -4.34 2.68 -4 2 C-3.34 2 -2.68 2 -2 2 C-1.34 1.34 -0.68 0.68 0 0 Z " fill="#EA72DD" transform="translate(739,393)"/>
<path d="M0 0 C0.99 0 1.98 0 3 0 C3.0825 1.051875 3.165 2.10375 3.25 3.1875 C4.05320762 7.27047209 5.19334709 9.0122727 8 12 C4.16309363 10.43681592 1.60845111 8.2046685 -1 5 C-0.8125 2.1875 -0.8125 2.1875 0 0 Z " fill="#7330ED" transform="translate(388,632)"/>
<path d="M0 0 C1.98 0.99 1.98 0.99 4 2 C4 3.32 4 4.64 4 6 C5.65 5.67 7.3 5.34 9 5 C7.25 8.875 7.25 8.875 5 10 C5 9.34 5 8.68 5 8 C4.34 8 3.68 8 3 8 C0.95830515 5.09451118 0 3.59857954 0 0 Z " fill="#9738E5" transform="translate(502,646)"/>
<path d="M0 0 C0.66 0.33 1.32 0.66 2 1 C2 2.98 2 4.96 2 7 C1.236875 6.95875 0.47375 6.9175 -0.3125 6.875 C-3.22718416 6.77919176 -3.22718416 6.77919176 -6 9 C-4.47291037 5.56404834 -2.40072955 2.88087546 0 0 Z " fill="#B549E2" transform="translate(598,441)"/>
<path d="M0 0 C0 3 0 3 -1.53125 4.82421875 C-2.1809375 5.43910156 -2.830625 6.05398438 -3.5 6.6875 C-4.1496875 7.31011719 -4.799375 7.93273437 -5.46875 8.57421875 C-5.9740625 9.04472656 -6.479375 9.51523437 -7 10 C-7.66 9.34 -8.32 8.68 -9 8 C-8 5 -8 5 -5.0625 3.4375 C-4.051875 2.963125 -3.04125 2.48875 -2 2 C-1.34 1.34 -0.68 0.68 0 0 Z " fill="#AD44E6" transform="translate(568,586)"/>
<path d="M0 0 C0 3 0 3 -1.53125 4.82421875 C-2.1809375 5.43910156 -2.830625 6.05398438 -3.5 6.6875 C-4.1496875 7.31011719 -4.799375 7.93273437 -5.46875 8.57421875 C-5.9740625 9.04472656 -6.479375 9.51523437 -7 10 C-7.66 9.67 -8.32 9.34 -9 9 C-9 8.34 -9 7.68 -9 7 C-8.34 6.67 -7.68 6.34 -7 6 C-6.67 5.01 -6.34 4.02 -6 3 C-4.0625 2.4375 -4.0625 2.4375 -2 2 C-1.34 1.34 -0.68 0.68 0 0 Z " fill="#A33DE9" transform="translate(529,630)"/>
<path d="M0 0 C0 3.33156142 -0.45664761 5.06028115 -2 8 C-4.4375 9.6875 -4.4375 9.6875 -7 11 C-7.99 11.66 -8.98 12.32 -10 13 C-8.48446596 9.52224821 -6.4226544 7.0442016 -3.875 4.25 C-3.15054688 3.45078125 -2.42609375 2.6515625 -1.6796875 1.828125 C-0.84824219 0.92320312 -0.84824219 0.92320312 0 0 Z " fill="#C751E7" transform="translate(625,411)"/>
<path d="M0 0 C0.66 0.33 1.32 0.66 2 1 C2.99 1 3.98 1 5 1 C4.01 3.31 3.02 5.62 2 8 C0.35 7.01 -1.3 6.02 -3 5 C-1.125 1.125 -1.125 1.125 0 0 Z " fill="#DC65D4" transform="translate(713,313)"/>
<path d="M0 0 C1.32 0.66 2.64 1.32 4 2 C2.35 3.65 0.7 5.3 -1 7 C-1.33 6.01 -1.66 5.02 -2 4 C-2.66 3.67 -3.32 3.34 -4 3 C-3.01 3 -2.02 3 -1 3 C-0.67 2.01 -0.34 1.02 0 0 Z " fill="#140F19" transform="translate(534,508)"/>
<path d="M0 0 C6.16456078 0.38528505 9.98627748 2.47086025 15 6 C14.67 6.66 14.34 7.32 14 8 C9.8819206 6.54656021 6.577643 4.48879513 3 2 C2.01 1.34 1.02 0.68 0 0 Z " fill="#6732EA" transform="translate(321,475)"/>
<path d="M0 0 C-1.65 0.33 -3.3 0.66 -5 1 C-5 1.66 -5 2.32 -5 3 C-4.34 3.33 -3.68 3.66 -3 4 C-3.928125 3.979375 -4.85625 3.95875 -5.8125 3.9375 C-9.02286011 3.84230396 -9.02286011 3.84230396 -12 5 C-11 2 -11 2 -7.6875 0.25 C-3.02436902 -1.33072237 -3.02436902 -1.33072237 0 0 Z " fill="#6532ED" transform="translate(307,476)"/>
<path d="M0 0 C2.475 0.495 2.475 0.495 5 1 C3.63016497 4.16115776 3.0109362 4.9927092 0 7 C0 4.69 0 2.38 0 0 Z " fill="#CC5BDC" transform="translate(664,472)"/>
<path d="M0 0 C2 3.75 2 3.75 2 6 C1.34 6 0.68 6 0 6 C-0.33 6.66 -0.66 7.32 -1 8 C-1.33 7.01 -1.66 6.02 -2 5 C-2.33 5.66 -2.66 6.32 -3 7 C-3.66 6.67 -4.32 6.34 -5 6 C-3.35 4.02 -1.7 2.04 0 0 Z " fill="#B244E5" transform="translate(581,461)"/>
<path d="M0 0 C0 3 0 3 -1.53125 4.60546875 C-2.1809375 5.12753906 -2.830625 5.64960938 -3.5 6.1875 C-4.1496875 6.71730469 -4.799375 7.24710937 -5.46875 7.79296875 C-5.9740625 8.19128906 -6.479375 8.58960938 -7 9 C-8.125 5.25 -8.125 5.25 -7 3 C-5.33499557 2.65846063 -3.66821323 2.32550502 -2 2 C-1.34 1.34 -0.68 0.68 0 0 Z " fill="#D75FE0" transform="translate(685,454)"/>
<path d="M0 0 C0.33 0.99 0.66 1.98 1 3 C2.65 2.01 4.3 1.02 6 0 C4.60667426 3.36720387 3.0210714 4.9859524 0 7 C-0.66 5.35 -1.32 3.7 -2 2 C-1.34 1.34 -0.68 0.68 0 0 Z " fill="#DD64D9" transform="translate(711,419)"/>
<path d="M0 0 C1.32 0.33 2.64 0.66 4 1 C4 1.66 4 2.32 4 3 C5.32 2.34 6.64 1.68 8 1 C6.63016497 4.16115776 6.0109362 4.9927092 3 7 C2.01 4.69 1.02 2.38 0 0 Z " fill="#AF43E4" transform="translate(568,577)"/>
<path d="M0 0 C0 3.20395416 -0.74335022 5.09399739 -2 8 C-3.32 7.67 -4.64 7.34 -6 7 C-4.02 4.69 -2.04 2.38 0 0 Z " fill="#070807" transform="translate(584,570)"/>
<path d="M0 0 C0.99 0.33 1.98 0.66 3 1 C3 1.66 3 2.32 3 3 C2.34 3 1.68 3 1 3 C0.34 4.32 -0.32 5.64 -1 7 C-1.66 6.01 -2.32 5.02 -3 4 C-2.01 2.68 -1.02 1.36 0 0 Z " fill="#161115" transform="translate(757,307)"/>
<path d="M0 0 C0.33 0.66 0.66 1.32 1 2 C0.01 2.495 0.01 2.495 -1 3 C-1.99 4.485 -1.99 4.485 -3 6 C-3.99 6.33 -4.98 6.66 -6 7 C-5.8125 5.1875 -5.8125 5.1875 -5 3 C-2.4375 1.25 -2.4375 1.25 0 0 Z " fill="#130E19" transform="translate(528,635)"/>
<path d="M0 0 C2.88395737 1.44197868 4.76525152 3.70644235 7 6 C6.34 6.66 5.68 7.32 5 8 C2.5 5.6875 2.5 5.6875 0 3 C0 2.01 0 1.02 0 0 Z " fill="#692CD8" transform="translate(381,628)"/>
<path d="M0 0 C0.99 0.99 1.98 1.98 3 3 C2.0409375 3.433125 2.0409375 3.433125 1.0625 3.875 C-1.15206079 4.82823451 -1.15206079 4.82823451 -2 7 C-2.99 6.67 -3.98 6.34 -5 6 C-4 4 -4 4 -1 2 C-0.67 1.34 -0.34 0.68 0 0 Z " fill="#732BE7" transform="translate(420,606)"/>
<path d="M0 0 C0.99 0.33 1.98 0.66 3 1 C0.69 3.64 -1.62 6.28 -4 9 C-4.33 7.68 -4.66 6.36 -5 5 C-4.175 4.54625 -3.35 4.0925 -2.5 3.625 C-1.2625 2.820625 -1.2625 2.820625 0 2 C0 1.34 0 0.68 0 0 Z " fill="#D259E4" transform="translate(661,479)"/>
<path d="M0 0 C0 3 0 3 -1.3125 4.38671875 C-2.875 5.59114583 -4.4375 6.79557292 -6 8 C-6 6.35 -6 4.7 -6 3 C-5.38125 2.87625 -4.7625 2.7525 -4.125 2.625 C-1.80879168 2.12802644 -1.80879168 2.12802644 0 0 Z " fill="#AA3FEA" transform="translate(536,622)"/>
<path d="M0 0 C2.375 0.1875 2.375 0.1875 5 1 C6.3125 3.5625 6.3125 3.5625 7 6 C6.01 6 5.02 6 4 6 C0 1.54285714 0 1.54285714 0 0 Z " fill="#130F21" transform="translate(420,564)"/>
<path d="M0 0 C1 3 1 3 1 7 C0.01 7 -0.98 7 -2 7 C-2.6875 5.1875 -2.6875 5.1875 -3 3 C-1.5625 1.25 -1.5625 1.25 0 0 Z " fill="#161017" transform="translate(658,486)"/>
<path d="M0 0 C0.66 0.66 1.32 1.32 2 2 C3.31747324 2.69748583 4.64914193 3.36959957 6 4 C4.02 4.99 4.02 4.99 2 6 C1.67 5.34 1.34 4.68 1 4 C0.34 4 -0.32 4 -1 4 C-0.67 2.68 -0.34 1.36 0 0 Z " fill="#C65BC4" transform="translate(706,423)"/>
<path d="M0 0 C1.98 0.66 3.96 1.32 6 2 C4.68 3.32 3.36 4.64 2 6 C1.34 5.67 0.68 5.34 0 5 C0 3.35 0 1.7 0 0 Z " fill="#151018" transform="translate(623,405)"/>
<path d="M0 0 C0.33 0.66 0.66 1.32 1 2 C0.34 2 -0.32 2 -1 2 C-1 3.65 -1 5.3 -1 7 C-1.99 7.33 -2.98 7.66 -4 8 C-5 6 -5 6 -4.25 3.4375 C-3 1 -3 1 0 0 Z " fill="#BB51CF" transform="translate(672,360)"/>
<path d="M0 0 C0 0.99 0 1.98 0 3 C-2.5 5.1875 -2.5 5.1875 -5 7 C-5 5.35 -5 3.7 -5 2 C-3.35 1.34 -1.7 0.68 0 0 Z " fill="#A23EED" transform="translate(519,641)"/>
<path d="M0 0 C3.36720387 1.39332574 4.9859524 2.9789286 7 6 C4 6 4 6 1.8125 4.125 C0 2 0 2 0 0 Z " fill="#140E26" transform="translate(301,547)"/>
<path d="M0 0 C0.66 0 1.32 0 2 0 C2 0.99 2 1.98 2 3 C2.99 2.67 3.98 2.34 5 2 C3.25 5.875 3.25 5.875 1 7 C0.34 5.02 -0.32 3.04 -1 1 C-0.67 0.67 -0.34 0.34 0 0 Z " fill="#F47FD4" transform="translate(755,368)"/>
<path d="M0 0 C0.99 0 1.98 0 3 0 C3 0.99 3 1.98 3 3 C2.34 3 1.68 3 1 3 C0.67 3.99 0.34 4.98 0 6 C-0.66 5.34 -1.32 4.68 -2 4 C-1 1 -1 1 0 0 Z " fill="#160E18" transform="translate(673,352)"/>
<path d="M0 0 C0 0.99 0 1.98 0 3 C-2 4.6875 -2 4.6875 -4 6 C-4.33 4.68 -4.66 3.36 -5 2 C-3.35 1.34 -1.7 0.68 0 0 Z " fill="#AC43E7" transform="translate(557,598)"/>
<path d="M0 0 C0 0.99 0 1.98 0 3 C-2 4.6875 -2 4.6875 -4 6 C-4 5.01 -4 4.02 -4 3 C-4.99 2.67 -5.98 2.34 -7 2 C-4.6921509 0.84607545 -2.52769669 0.46562834 0 0 Z " fill="#B846E6" transform="translate(589,562)"/>
<path d="M0 0 C0 3 0 3 -1.3125 4.38671875 C-2.875 5.59114583 -4.4375 6.79557292 -6 8 C-6 6.68 -6 5.36 -6 4 C-3.5625 2.3125 -3.5625 2.3125 -1 1 C-0.67 0.67 -0.34 0.34 0 0 Z " fill="#C551E9" transform="translate(614,534)"/>
<path d="M0 0 C0 0.99 0 1.98 0 3 C-2.5 5.1875 -2.5 5.1875 -5 7 C-5.33 5.68 -5.66 4.36 -6 3 C-5.195625 2.690625 -4.39125 2.38125 -3.5625 2.0625 C-1.10919595 1.23664655 -1.10919595 1.23664655 0 0 Z " fill="#CE55E5" transform="translate(653,490)"/>
<path d="M0 0 C0.99 0 1.98 0 3 0 C2.67 1.65 2.34 3.3 2 5 C0.68 4.67 -0.64 4.34 -2 4 C-1.34 2.68 -0.68 1.36 0 0 Z " fill="#9F40D4" transform="translate(569,474)"/>
<path d="M0 0 C0 0.99 0 1.98 0 3 C-2.5 5.1875 -2.5 5.1875 -5 7 C-5.33 5.68 -5.66 4.36 -6 3 C-5.195625 2.690625 -4.39125 2.38125 -3.5625 2.0625 C-1.10919595 1.23664655 -1.10919595 1.23664655 0 0 Z " fill="#DB63E1" transform="translate(692,446)"/>
<path d="M0 0 C0 0.99 0 1.98 0 3 C-2.5 5.1875 -2.5 5.1875 -5 7 C-5 5.35 -5 3.7 -5 2 C-4.360625 1.855625 -3.72125 1.71125 -3.0625 1.5625 C-1.02454854 1.18992819 -1.02454854 1.18992819 0 0 Z " fill="#E66AE0" transform="translate(723,411)"/>
<path d="M0 0 C0.33 0.66 0.66 1.32 1 2 C1.99 2 2.98 2 4 2 C4 1.34 4 0.68 4 0 C4.99 0.33 5.98 0.66 7 1 C5.68 2.32 4.36 3.64 3 5 C3 4.34 3 3.68 3 3 C1.68 2.67 0.36 2.34 -1 2 C-0.67 1.34 -0.34 0.68 0 0 Z " fill="#160F19" transform="translate(660,363)"/>
<path d="M0 0 C0.99 0.33 1.98 0.66 3 1 C3.33 1.99 3.66 2.98 4 4 C3.01 4.66 2.02 5.32 1 6 C1 4.68 1 3.36 1 2 C-0.32 2.33 -1.64 2.66 -3 3 C-2.01 2.01 -1.02 1.02 0 0 Z " fill="#E46DDC" transform="translate(720,309)"/>
</svg>
